<?xml version="1.0" encoding="UTF-8"?>
<svg width="36px" height="39px" viewBox="0 0 36 39" version="1.1" xmlns="http://www.w3.org/2000/svg" xmlns:xlink="http://www.w3.org/1999/xlink">
    <!-- Generator: Sketch 54.1 (76490) - https://sketchapp.com -->
    <title>Facebook</title>
    <desc>Created with Sketch.</desc>
    <g id="Home" stroke="none" stroke-width="1" fill="none" fill-rule="evenodd">
        <g transform="translate(-1322.000000, -51.000000)" fill="#EEB100" id="Group-48">
            <g transform="translate(562.000000, 40.000000)">
                <path d="M795.610527,25.6929107 C795.243225,24.319014 794.849568,22.9486849 794.315314,21.6266084 C794.230958,21.4157878 794.172961,21.1924627 794.072791,20.9888046 C793.872447,20.5814608 793.651011,20.1848379 793.440143,19.7846383 C793.192348,19.3165649 792.963881,18.8359595 792.691467,18.3839397 C792.364588,17.8408117 792.000782,17.3191344 791.649321,16.7920601 C791.608898,16.7313167 791.543874,16.6884381 791.484123,16.6419875 C791.231055,16.4436761 791.06937,16.1953373 791.058829,15.9452286 C790.761824,15.7040386 790.473601,15.5718264 790.352353,15.346713 C790.208246,15.0769373 789.976265,14.9679549 789.772389,14.8035849 C789.684519,14.7321207 789.580831,14.6803097 789.487688,14.6142059 C789.002652,14.2676056 788.519371,13.9192307 788.03429,13.572635 C787.78825,13.6691129 787.77419,13.3600307 787.586151,13.3135755 C787.391079,13.2635483 787.222367,13.1009712 787.043123,12.9866285 C786.818173,12.8454884 786.610797,12.6471723 786.364765,12.5739244 C785.357757,12.2684143 784.398213,11.8110296 783.350803,11.6323805 C782.693546,11.5198261 782.053835,11.3054334 781.401842,11.1535588 C781.09605,11.0820946 780.76564,10.9552474 780.47919,11.0159908 C779.944935,11.1303335 779.412435,11.1714237 778.871161,11.1767841 C778.458168,11.1803562 778.043438,11.2196627 777.63043,11.2053698 C777.068057,11.1857166 776.507438,11.1035316 775.945065,11.0963875 C775.359836,11.087455 774.776363,11.0892433 774.21048,11.3215009 C773.739481,11.5144565 773.243917,11.6984752 772.7448,11.7610069 C771.888957,11.8699893 771.12269,12.2040851 770.372303,12.5864243 C769.897795,12.8276143 769.331912,12.8008169 768.904869,13.1617055 C768.85039,13.2081561 768.729129,13.17421 768.641255,13.1831471 C768.435638,13.204584 768.187847,13.1634938 768.033172,13.2671158 C767.741439,13.4600715 767.498917,13.729838 767.244094,13.9799742 C767.152711,14.0710916 767.099987,14.2015155 767.013872,14.3015654 C766.702808,14.6624586 766.293314,14.9322342 766.057837,15.3628033 C765.976995,15.5093038 765.91373,15.6754575 765.80301,15.7951606 C765.400562,16.2382387 765.105307,16.747407 764.822366,17.2726975 C764.680013,17.5371128 764.458582,17.7622217 764.326757,18.0301953 C764.052598,18.5858096 763.811848,19.1593527 763.555271,19.7256695 C763.511334,19.8221473 763.462128,19.9204089 763.397104,20.0025939 C763.25827,20.1794684 763.093072,20.3349013 762.968297,20.5189199 C762.841763,20.7047269 762.782012,20.9405565 762.641418,21.1103006 C762.182746,21.6623474 762.068517,22.3394851 761.984161,23.0130553 C761.912105,23.599039 761.748666,24.1529152 761.513162,24.67816 C761.307545,25.1390985 761.096655,25.5911182 760.964825,26.0859936 C760.803141,26.7006087 760.579951,27.2990786 760.404207,27.9101262 C760.33391,28.1584649 760.311064,28.421101 760.277673,28.6801559 C760.172225,29.4930414 759.901583,30.2934405 760.103688,31.1313899 C760.130047,31.2421606 760.077324,31.3743682 760.059751,31.4976434 C760.038664,31.647716 760,31.7995814 760,31.949654 C760.001757,32.8786659 760.0123,33.8095073 760.022845,34.7385649 C760.024605,34.8886375 759.985941,35.0583678 760.043937,35.1852151 C760.209135,35.5478966 760.202103,35.9213079 760.214408,36.3036243 C760.226708,36.7145447 760.265372,37.1326092 760.340942,37.5363763 C760.446389,38.0919905 760.592251,38.6387318 760.732844,39.1854273 C760.850592,39.644582 760.952521,40.1126554 761.126506,40.5504052 C761.274126,40.9255912 761.514894,41.2632636 761.713489,41.618778 C761.968316,42.083284 762.379564,42.4513304 762.52893,42.9837559 C762.532444,42.9962605 762.550017,43.0051929 762.558803,43.0176974 C762.998157,43.5268885 763.44101,44.0343004 763.876872,44.545225 C764.061402,44.7631897 764.194964,45.0937042 764.425208,45.18838 C764.846989,45.3634662 764.887389,45.9101571 765.33027,46.0227161 C765.493709,46.360384 765.792451,46.5587092 766.070128,46.7820434 C766.233568,46.9142511 766.368888,47.0839814 766.520027,47.2322702 C766.694012,47.4002123 766.846906,47.6092445 767.050773,47.7235781 C767.616655,48.0415927 768.187802,48.3595982 768.787112,48.6008156 C769.48657,48.8831027 770.214146,49.0939096 770.938168,49.3136763 C771.352916,49.4387398 771.778219,49.5280689 772.203508,49.613826 C772.435485,49.6602766 772.676262,49.6549176 772.911739,49.6924389 C773.542632,49.7942771 774.170061,49.9800841 774.802709,49.9961607 C775.741153,50.0193869 776.681396,49.9318452 777.61984,49.8782459 C778.066225,49.8532332 778.510864,49.8014213 778.955499,49.7531824 C779.224386,49.7228102 779.491509,49.6370513 779.758659,49.6406279 C780.600464,49.6549208 781.398315,49.3976496 782.215511,49.2600816 C782.656623,49.186829 783.073108,48.9777968 783.537089,49.0188916 C783.617931,49.0260375 783.714587,48.979586 783.784884,48.9313462 C784.428104,48.4829054 785.153926,48.4257203 785.895539,48.477545 C786.740854,48.5365047 787.484221,48.3113913 788.109896,47.7236147 C788.355936,47.4931409 788.601995,47.26446 788.835717,47.0232883 C789.013216,46.8392697 789.173141,46.6355932 789.345363,46.4444396 C789.415659,46.3658267 789.492984,46.2925787 789.57734,46.230047 C790.041275,45.8834467 790.515783,45.5529093 790.967437,45.1902598 C791.151967,45.041971 791.297833,44.8382991 791.4437,44.6453481 C791.747732,44.2415764 792.034192,43.8252819 792.334724,43.4179473 C792.538582,43.1410229 792.81976,42.9123237 792.823269,42.5139079 C792.823269,42.4370833 792.912898,42.3584749 792.963863,42.2834341 C793.067551,42.1333615 793.187053,41.9922168 793.273168,41.8314235 C793.485817,41.4276518 793.659802,41.0006549 793.893533,40.6075903 C794.185266,40.1162824 794.566627,39.6767489 794.668574,39.085414 C794.675606,39.0425355 794.712511,39.0050173 794.733598,38.9639225 C794.904069,38.6244664 795.106173,38.297533 795.232716,37.9437566 C795.403187,37.4721157 795.522689,36.980762 795.649223,36.4930216 C795.682614,36.3625977 795.673828,36.2178856 795.673828,36.0821013 C795.673828,35.9159475 795.635164,35.7444334 795.663282,35.5854421 C795.758184,35.0351791 795.656255,34.4652492 795.861872,33.9256886 C795.91635,33.7827602 795.861872,33.5951649 795.856599,33.4290295 C795.853086,33.3111147 795.835513,33.1949836 795.84254,33.0770688 C795.861872,32.7590542 795.902291,32.4410488 795.909323,32.1230387 C795.9269,31.4066129 795.925141,30.6884032 795.937442,29.9719774 C795.951501,29.2198308 795.958533,28.4676385 795.997193,27.7172757 C796.02883,27.0062011 795.786303,26.3469466 795.610559,25.6930433 L795.610527,25.6929107 Z M766.223139,42.2941045 C766.033336,42.303037 765.947225,42.1618969 765.875169,42.0386217 C765.514899,41.4276198 765.061482,40.8719598 764.766259,40.1126783 C765.175739,40.244886 765.499099,40.3342197 765.845296,40.2556067 C765.906806,40.2413139 766.087818,40.4306929 766.073759,40.4682111 C765.926134,40.8362529 766.251258,41.1185468 766.226653,41.4597913 C766.20908,41.7224229 766.223139,41.9850361 766.223139,42.2941274 L766.223139,42.2941045 Z M768.103581,36.2321098 C768.096549,36.3518129 767.938383,36.459007 767.834694,36.5912192 C767.657196,36.4250655 767.569326,36.3500292 767.711674,36.1106138 C767.852267,35.8765679 767.846995,35.5549995 767.910264,35.2727102 C767.941896,35.1351421 767.984074,34.9993578 768.022739,34.8635781 C768.052612,34.8689385 768.084249,34.8742989 768.115881,34.8796593 C768.115881,35.3298861 768.133454,35.7836987 768.103576,36.2321052 L768.103581,36.2321098 Z M769.602644,20.8456932 C769.702818,20.3901106 769.996305,20.0042221 770.481341,19.7612209 C770.2107,20.0971004 769.938313,20.4311779 769.602644,20.8456932 Z M771.922412,39.3870547 C772.096397,39.1279952 772.242263,38.9100168 772.421529,38.6420431 C772.440862,39.0690401 772.289723,39.2959464 771.922412,39.3870547 Z M773.277372,37.1180831 C773.365242,36.9680105 773.428511,36.8626002 773.488262,36.75719 C773.495289,37.0108891 773.495289,37.0108891 773.277372,37.1180831 Z M774.010212,19.6199893 C773.895978,19.7986476 773.823927,19.9862429 773.924097,20.1774331 C774.103354,20.5204613 773.88016,20.7259123 773.695634,20.9421116 C773.504076,21.1690087 773.272095,21.0975445 772.973321,21.0242966 C773.120942,20.6705476 773.233417,20.3435914 773.389829,20.039897 C773.569086,19.6897247 773.767672,19.3449219 773.994403,19.0250823 C774.108636,18.864289 774.303708,18.7642391 774.463647,18.6356035 C774.488247,18.6641892 774.512857,18.6909866 774.537457,18.7177885 C774.361713,19.0215103 774.19652,19.3270066 774.010221,19.6200442 L774.010212,19.6199893 Z M779.682986,48.1718245 C779.591598,48.2004102 779.500214,48.2307842 779.345562,48.2808069 C779.38774,48.1628921 779.405313,48.0414006 779.43519,48.0378286 C779.516033,48.0288961 779.603902,48.0699909 779.688258,48.0914279 C779.688258,48.1182298 779.686499,48.1450272 779.682986,48.1718245 Z M778.50902,29.8861426 C778.519561,29.7825114 778.501988,29.6663804 778.544166,29.5770513 C779.043284,28.5014977 779.54942,27.4295574 780.097711,26.266463 C780.092439,26.8328255 779.046793,29.248293 778.50902,29.8861426 L778.50902,29.8861426 Z M780.173285,39.1177089 C780.14868,39.1052044 780.122321,39.0909116 780.097716,39.0784071 C780.206677,38.7961223 780.305092,38.5084771 780.429867,38.2333227 C780.501923,38.0707411 780.57046,38.0796735 780.890294,38.2547597 C780.633712,38.5638419 780.403503,38.8407434 780.173245,39.1176815 L780.173285,39.1177089 Z M780.804178,30.7688594 C780.804178,30.3239929 780.928953,30.1542443 781.298032,30.1900107 C781.102961,30.4151241 780.962367,30.5830661 780.804178,30.7688594 Z M789.528166,20.8622043 C789.326062,20.6442396 789.037866,20.4727255 789.181955,20.0135525 C789.341881,20.3065535 789.477201,20.5566805 789.614281,20.8068167 C789.584403,20.8264699 789.556284,20.8443394 789.528166,20.8621997 L789.528166,20.8622043 Z M792.39627,35.773417 C792.206467,35.68766 792.055333,35.6197678 791.898907,35.5500919 C791.988536,35.2678071 792.060592,35.0391171 792.134402,34.8086479 C792.20294,34.5924669 792.273237,34.3780743 792.347051,34.1422584 C792.55091,34.5906969 792.559701,34.8354498 792.396261,35.7734262 L792.39627,35.773417 Z M792.413843,33.9814376 C792.081692,33.6026796 792.085206,33.5758776 792.524559,33.4329583 C792.480622,33.647351 792.450749,33.7974281 792.413843,33.9814376 Z M778.233266,38.0124126 L771.53219,37.7784059 C771.105578,37.7635083 770.772044,37.4056143 770.786936,36.9791692 L771.221594,24.5321836 C771.23649,24.1056299 771.594226,23.7720386 772.020783,23.7869343 L784.467865,24.221596 C784.894313,24.2364879 785.227961,24.5942228 785.213066,25.0207765 L784.778408,37.4677621 C784.763514,37.8942616 784.405666,38.2279576 783.979272,38.2130676 L780.413881,38.0885614 L780.603091,32.6702925 L782.421753,32.7338016 L782.767811,30.6317157 L780.676829,30.558697 L780.723907,29.2105766 C780.745256,28.599221 780.929569,28.1885306 781.806245,28.2191448 L782.92442,28.2577032 L782.990373,26.3690752 C782.79789,26.3365889 782.136148,26.2559175 781.363926,26.2289509 C779.751782,26.1726536 778.613702,27.118165 778.550595,28.9253042 L778.496215,30.4825482 L776.672883,30.4188761 L776.599144,32.5304716 L778.422476,32.5941438 L778.233266,38.0124126 Z" id="Facebook"></path>
            </g>
        </g>
    </g>
</svg>