<?xml version="1.0" encoding="UTF-8"?>
<svg width="156px" height="79px" viewBox="0 0 156 79" version="1.1" xmlns="http://www.w3.org/2000/svg" xmlns:xlink="http://www.w3.org/1999/xlink">
    <!-- Generator: Sketch 54.1 (76490) - https://sketchapp.com -->
    <title>Icon3</title>
    <desc>Created with Sketch.</desc>
    <g id="Home" stroke="none" stroke-width="1" fill="none" fill-rule="evenodd">
        <g transform="translate(-761.000000, -2804.000000)" fill-rule="nonzero" id="Group-34">
            <g transform="translate(140.000000, 2635.000000)">
                <g id="Group-24">
                    <g id="Group-8" transform="translate(0.000000, 168.000000)">
                        <g id="Group-39" transform="translate(571.000000, 0.626850)">
                            <g id="Icon3" transform="translate(50.000000, 0.373150)">
                                <path d="M30.2172772,76.6435082 C29.4422551,76.5462073 28.1364571,76.4025411 27.315504,76.3242546 C24.392755,76.0455403 22.5856416,75.8425474 22.3411927,75.7654932 C22.2047816,75.7224948 21.6642166,75.6333982 21.139938,75.5675073 C20.6156595,75.5016164 20.0566241,75.3971654 19.8976383,75.3353996 C19.7386524,75.2736339 19.3661447,75.1908774 19.069843,75.1514957 C18.0925482,75.021607 17.1945778,74.7712204 16.4833005,74.4302722 C16.2076251,74.2981313 15.9448618,74.2299853 15.8993862,74.2788383 C15.8539091,74.3276941 15.8420984,74.2961319 15.8731392,74.2087015 C15.9113436,74.1010963 15.6353734,74.0299799 15.0189596,73.9885816 C14.5181201,73.9549481 14.0530809,73.8853715 13.9855392,73.8339734 C13.9179974,73.7825752 13.8416526,73.4999225 13.8158861,73.2058595 C13.7626074,72.5978228 13.6753519,72.5042248 12.8830482,72.2052122 C12.5877433,72.0937661 12.1239272,71.8587915 11.8523452,71.683046 C11.5807648,71.5073005 11.260475,71.3240889 11.140589,71.2759053 C10.7982969,71.138335 10.8043606,70.8005295 11.1606521,70.1580349 C11.535322,69.4824067 11.8307002,69.2010554 12.4318462,68.9471957 C12.8216278,68.7825991 13.3550028,68.1001684 13.3597077,67.7600418 C13.3612833,67.645792 13.0040464,67.4237674 12.4952821,67.2227997 C12.3590207,67.168977 11.9122835,67.0711274 11.5025324,67.0053543 C11.0927796,66.939584 10.5478654,66.7751598 10.2916073,66.6399681 C10.0068059,66.4897177 9.43415639,66.3757983 8.81849145,66.3469191 C7.72511909,66.2956301 7.25757304,66.0570043 7.18856488,65.5150367 C7.16518828,65.3314487 6.96112467,65.0409507 6.66974163,64.7764534 C6.40558214,64.5366671 6.20941213,64.2842581 6.23381053,64.2155404 C6.25820737,64.1468199 6.22911493,64.1195609 6.16917349,64.1549669 C5.89993309,64.3139703 5.49905676,63.9633239 5.35711703,63.4446653 C5.20241651,62.8793743 5.27527163,62.3580987 5.5074558,62.3689919 C5.5743096,62.3721231 5.63001564,62.3231351 5.6312496,62.2601198 C5.6324976,62.1971044 5.88552181,62.1375363 6.19356097,62.1277462 C6.50159858,62.117979 6.76699047,62.0443951 6.78332211,61.9642786 C6.79965375,61.8841621 6.88238211,61.8218678 6.96716343,61.8258465 C7.05194475,61.8298108 7.1453404,61.7653965 7.17470896,61.6826773 C7.20407908,61.5999582 7.26544792,61.5340299 7.31108728,61.5361701 C7.35672664,61.538181 7.3750582,61.5936067 7.35182356,61.6590494 C7.32858736,61.7244922 7.41902212,61.7804867 7.55278589,61.7834858 C7.69642289,61.7867032 7.79713025,61.7069113 7.79876669,61.5885794 C7.80032669,61.478383 7.83829039,61.4324717 7.88321215,61.4865558 C7.92813235,61.5406371 7.96579075,61.5194223 7.96689679,61.4394121 C7.97015719,61.2036762 7.75415849,61.1074468 7.37216752,61.1744581 C7.17561688,61.2089332 6.84785151,61.1510744 6.64379882,61.0457471 C6.43974614,60.9404803 6.21705925,60.8317231 6.14893873,60.8040677 C6.08081665,60.7764036 5.95989325,60.6990105 5.88021624,60.6320682 C5.80053924,60.5651258 5.66076792,60.542558 5.56961556,60.5819138 C5.35763495,60.6734435 5.28817439,60.4621169 5.45208359,60.2243328 C5.52147552,60.1236651 5.57799276,60.1013184 5.57767764,60.1746726 C5.57736564,60.2480267 5.60548932,60.2405721 5.64018216,60.1580971 C5.74688616,59.9044529 6.08217697,59.6276835 6.07986037,59.7951671 C6.07861237,59.879923 6.11727385,59.9511226 6.16560577,59.9533892 C6.21393769,59.9556873 6.23599609,59.9023127 6.21462253,59.8348447 C6.15949057,59.6608142 6.82576035,59.6646234 6.99263511,59.8392974 C7.08176572,59.9325938 7.16579824,59.9239125 7.22804536,59.8149657 C7.33982404,59.6193555 7.67430521,59.5545103 7.60798337,59.7413099 C7.53069785,59.958988 7.79759513,59.8867485 7.90472923,59.6609895 C7.98101167,59.5002452 8.05982911,59.4843161 8.21177936,59.5989393 C8.47443032,59.7970688 8.56368261,59.7967097 8.40753752,59.5983648 C8.3158142,59.4817278 8.35788428,59.4492032 8.57540133,59.4685795 C8.73504393,59.4827993 9.14679658,59.4297378 9.49040687,59.3506641 C9.83401404,59.2715876 10.2151345,59.2023414 10.3373356,59.1967798 C10.7006783,59.1802619 10.6032891,58.6651223 10.1184442,58.0389877 C9.84143964,57.6812601 9.71044487,57.4150019 9.74208636,57.2740073 C9.77299464,57.1362819 9.82407996,57.1093906 9.88274844,57.1999695 C9.9334188,57.2781957 10.0503268,57.2902725 10.1425399,57.2268004 C10.2347562,57.1633312 10.4494403,57.1130993 10.619616,57.1151705 C10.8591135,57.1181006 10.9628519,57.028961 11.0787209,56.7207357 C11.2669349,56.2200659 11.2940664,55.9364795 11.190158,55.55596 C11.1450428,55.3907516 11.141876,55.2962084 11.1831224,55.3458629 C11.2243656,55.3955174 11.3110112,55.1842625 11.37567,54.8764049 C11.4403274,54.5685501 11.5353438,54.2680953 11.5868145,54.2087226 C11.6382851,54.1493584 11.5310632,54.091669 11.3485432,54.0805316 C11.1034282,54.0655936 11.0497579,54.0230921 11.1432066,53.9179947 C11.2391544,53.8100907 11.2042978,53.7720764 10.9989456,53.7606632 C10.8500171,53.7524473 10.6641883,53.6803428 10.5859918,53.6005566 C10.5077937,53.5207734 10.100785,53.1851196 9.68152559,52.8546653 C8.84071521,52.1919499 8.35167392,52.0269511 6.56407658,51.8028669 C5.19417191,51.6311431 5.04027634,51.5927238 4.82558134,51.3688808 C4.60702689,51.1410132 3.47734194,50.7723464 2.75984177,50.6947378 C2.38375228,50.6540605 2.04940371,50.5145396 1.80994526,50.2983639 C1.60670534,50.1148823 1.25457277,49.9097003 1.02742896,49.8424018 C0.57571691,49.708566 -0.0025189449,49.3010346 8.25516423e-06,49.1182912 C0.000944255188,49.0548794 0.218110301,48.8833194 0.482728427,48.7370506 C0.889365838,48.5122798 1.23366253,48.4820447 2.7065896,48.5417766 C3.88317283,48.5894891 4.55289489,48.5539855 4.7681281,48.4324908 C5.07894406,48.2570441 5.37667007,48.2975605 6.13550401,48.6185722 C6.33110306,48.7013172 6.88742559,48.8001493 7.37177284,48.8381981 C7.85612119,48.8762469 8.32349096,48.9817838 8.41037516,49.0727246 C8.5032716,49.1699652 8.69358225,49.1960865 8.87238633,49.1361478 C9.03961054,49.0800901 9.20921218,49.0504038 9.24927922,49.0701736 C9.39730295,49.1432204 11.9240054,49.214015 12.2055292,49.1530019 C12.6827972,49.0495707 13.2817264,48.9863313 14.1070725,48.9522209 C14.53511,48.9345251 14.9267808,48.8475113 14.9774527,48.7588342 C15.0675053,48.601247 14.9155004,48.5138339 14.6423912,48.56616 C14.5851533,48.5771337 14.5394172,48.5069624 14.5407557,48.4102447 C14.5421597,48.3135241 14.4893864,48.2695432 14.4236278,48.3125071 C14.3578691,48.3554682 14.2593722,48.2861358 14.2047441,48.1584562 C14.124986,47.9720214 14.0914304,47.9647076 14.0343906,48.1213267 C13.9764974,48.280287 13.9636383,48.2791178 13.9648739,48.1150067 C13.9658099,47.987735 13.9084736,47.9445269 13.8089909,47.997574 C13.7041823,48.0534593 13.6341071,47.990737 13.599252,47.8098264 C13.5704622,47.6604034 13.587396,47.51539 13.6368761,47.4875737 C13.764821,47.4156501 13.9787267,47.0216864 13.9810495,46.8536857 C13.9842943,46.619389 13.6597753,46.0669935 13.5734012,46.1597786 C13.5292657,46.2071952 13.515753,46.1453002 13.5433743,46.0222025 C13.5815491,45.8520904 13.5485691,45.8178594 13.4058416,45.8794815 C13.2567352,45.9438614 13.2294727,45.90982 13.2733929,45.7141036 C13.3552212,45.34947 13.1809536,45.2229596 13.0385521,45.5436237 C12.9605115,45.7193606 12.9319152,45.737605 12.9603852,45.5934936 C13.0105579,45.3395449 12.6281317,44.9120511 12.4867021,45.0639849 C12.4379723,45.1163339 12.4277325,45.0811636 12.4628809,44.9821649 C12.4967875,44.8866709 12.4849845,44.8066779 12.4366526,44.8044114 C12.3883191,44.8021132 12.3473473,44.903433 12.3456032,45.0294982 C12.341126,45.3530092 12.1769329,45.3086606 12.1743386,44.9832364 C12.172529,44.755952 12.1614998,44.7612032 12.1012151,45.0180333 C12.0621699,45.1843966 12.0411177,45.3583466 12.0544339,45.4045855 C12.0677563,45.4508243 12.0064108,45.4952763 11.9181257,45.5033658 C11.7239962,45.5211478 11.7143226,45.3998915 11.8918117,45.173443 C11.9949401,45.041868 11.9217871,45.0108631 11.5551824,45.0307823 C11.2784898,45.0458065 11.1072752,44.9985306 11.1368403,44.9152685 C11.1646161,44.8370337 11.1124934,44.8064251 11.0197061,44.8464906 C10.9224963,44.8884635 10.8535661,44.8434742 10.8550091,44.7390289 C10.8564131,44.6402227 10.81312,44.6070546 10.758885,44.6653157 C10.689607,44.7397414 10.6803999,44.6851373 10.7279299,44.4817565 C10.7651391,44.3225376 10.8054136,44.0989848 10.8174271,43.9849763 C10.8548032,43.6302564 11.0674733,43.5361959 11.3252352,43.7603836 C11.460612,43.8781266 11.524622,43.9778578 11.4674776,43.9820059 C11.2635653,43.996829 11.3634818,44.2953591 11.5756823,44.3053129 C11.7317853,44.3126383 11.7798614,44.2524008 11.7483696,44.0889505 C11.7243675,43.9643734 11.7428472,43.8215001 11.7894273,43.7714549 C11.8435406,43.7133203 11.8364348,43.5904582 11.7697479,43.431199 C11.6815143,43.2204843 11.6855937,43.1969426 11.7961088,43.2789953 C11.868017,43.3323813 11.9804275,43.309644 12.0459116,43.2284675 C12.1399484,43.1118937 12.1339829,43.0976595 12.0175321,43.1607553 C11.8932359,43.2281027 11.8796748,43.175722 11.9311408,42.8270922 C11.9647183,42.5996383 12.0228875,42.3781165 12.0604055,42.3348193 C12.1825192,42.1938994 12.0543839,41.5897926 11.9208807,41.6770162 C11.8342944,41.7335852 11.8064562,41.6717304 11.82812,41.4709523 C11.8507665,41.2610879 11.814392,41.1910344 11.6926496,41.2100315 C11.601115,41.2243088 11.5736606,41.1999484 11.6316411,41.1558842 C11.6896216,41.11182 11.718335,41.0166649 11.6954513,40.9444311 C11.6725677,40.8721973 11.7302549,40.7197924 11.8236428,40.6057552 C11.9170306,40.4917151 11.9694107,40.3518524 11.9400437,40.2949444 C11.9106736,40.2380364 11.9582318,40.1937797 12.0457244,40.196595 C12.1763104,40.2007891 12.183254,40.1751934 12.0844919,40.0535809 C12.0055435,39.9563748 11.9427347,39.9658547 11.9017988,40.0811588 C11.8674881,40.177799 11.8162936,40.2120615 11.7880326,40.1572994 C11.7362219,40.0569018 11.8991296,39.4164324 12.0112078,39.2798992 C12.1028204,39.1682951 12.2173369,38.4727018 12.1283623,38.5682877 C12.0863156,38.613455 12.0101065,38.5198426 11.9590071,38.3602618 C11.8763255,38.1020557 11.8908757,38.0743687 12.091175,38.1087692 C12.2330351,38.1331296 12.3095609,38.0764456 12.2981511,37.955445 C12.2881983,37.8498564 12.3079323,37.7729229 12.3420323,37.7844797 C12.5125076,37.8422754 12.6122789,37.7565571 12.6151384,37.5498268 C12.6168856,37.4237645 12.6578543,37.3224734 12.7061878,37.3247428 C12.7545198,37.327041 12.7738279,37.2649823 12.7490941,37.1869083 C12.7243587,37.1088343 12.7515121,37.0123291 12.8094349,36.9724533 C12.8729674,36.9287165 12.8572052,36.8924661 12.7696986,36.8810787 C12.6899217,36.8707083 12.6253798,36.8094395 12.6262721,36.7449505 C12.6272081,36.6804615 12.4972165,36.6328811 12.337499,36.6392125 C12.1777815,36.6455324 12.0686579,36.5900148 12.0950048,36.5158103 C12.1213501,36.4416058 12.0638157,36.3771829 11.9671503,36.3726469 C11.8704864,36.368108 11.8154262,36.2967217 11.8447932,36.2140025 C11.8741634,36.1312834 11.8546524,36.0615603 11.8014362,36.0590668 C11.745819,36.0564814 11.7283798,35.9489278 11.7604191,35.806158 C11.8070225,35.5984854 11.7950121,35.5884626 11.6871147,35.7449898 C11.5812656,35.8985437 11.5586456,35.8908363 11.561257,35.7020947 C11.5630042,35.5755412 11.6396189,35.4395365 11.7315045,35.3998647 C11.8320668,35.3564439 11.9003495,35.1992187 11.9030374,35.0049013 C11.906797,34.7330298 11.8712898,34.6944266 11.678076,34.760329 C11.489809,34.8245451 11.4746177,34.809791 11.5933992,34.6780867 C11.7278884,34.5289624 11.7258932,34.4902673 11.5652194,34.1319451 C11.4701109,33.9198457 11.3367948,33.7437009 11.2689582,33.7405208 C11.0192553,33.7288002 11.2448391,33.5784493 11.5805979,33.5328051 C11.7827739,33.5053135 11.9063212,33.5442384 11.8772147,33.6262078 C11.849779,33.7034832 11.8646723,33.7684635 11.9103101,33.7706036 C11.9559495,33.7726145 12.0131469,33.7185706 12.0374143,33.6502178 C12.0616832,33.5818678 12.2045246,33.5445544 12.3548384,33.5673033 C12.5051537,33.590055 12.6723561,33.5481999 12.7263992,33.4742999 C12.7867681,33.3917445 12.844591,33.4028503 12.8763495,33.5031015 C12.9113466,33.613568 12.978684,33.6193708 13.0848451,33.5210558 C13.1710881,33.441195 13.3283892,33.3857636 13.4344052,33.3978748 C13.7289582,33.4315255 14.7480204,33.311944 14.8193046,33.2353667 C14.8748344,33.1757124 15.7835515,33.0056347 16.061673,33.0028425 C16.2073365,33.0014061 16.201421,32.2826732 16.0539978,32.0705164 C15.9869334,31.9739997 15.9263992,31.7039955 15.9194806,31.4705032 C15.911665,31.2067959 15.8678867,31.0714634 15.8039127,31.1132639 C15.7436093,31.15266 15.7199815,31.0956256 15.7469056,30.9756534 C15.7769465,30.8417946 15.7070226,30.7317849 15.5452194,30.6583417 C15.2731445,30.5348476 15.0830569,30.1922792 15.1624781,29.9685856 C15.1910947,29.8879866 15.1403089,29.8571109 15.0460553,29.8978083 C14.9269618,29.9492295 14.8799137,29.8948207 14.8824893,29.708656 C14.8844705,29.5649209 14.811918,29.4078536 14.7212492,29.3596154 C14.5371412,29.2616681 14.5100096,29.0735557 14.6571878,28.9154457 C14.7182072,28.8498937 14.7310133,28.877055 14.691525,28.9882741 C14.6568914,29.0858221 14.6594717,29.1572314 14.6972658,29.1469673 C14.8750543,29.0986458 14.9726339,29.195105 14.9695747,29.4161557 C14.9652223,29.731175 15.166141,29.6182868 15.2062642,29.2831759 C15.2232183,29.1415724 15.2061082,29.0342027 15.1680473,29.0445731 C14.9382421,29.1073615 14.809514,28.981914 14.8134265,28.6989999 C14.8158133,28.5259547 14.8545325,28.4286222 14.8994527,28.4827035 C14.9443745,28.5367848 14.9830843,28.4394522 14.9854789,28.2664071 C14.9878657,28.0933591 15.041848,27.9542174 15.1054227,27.9571993 C15.1690005,27.9601869 15.2447307,27.856951 15.2737139,27.7277948 C15.3026971,27.5986415 15.2917881,27.5301651 15.2494699,27.5756255 C15.2071518,27.6210858 15.1575922,27.5707132 15.1393355,27.4637198 C15.1210788,27.3567149 15.1142928,27.3899577 15.1242503,27.5375939 C15.1342187,27.685233 15.1085193,27.8044382 15.0671527,27.8024991 C15.0257846,27.8004882 14.993073,27.7170653 14.9944583,27.6169606 C14.9958623,27.5168531 14.9423075,27.5655136 14.8754896,27.7250916 C14.7863122,27.9380643 14.7790301,28.0453593 14.8481038,28.1285237 C14.9021203,28.1935556 14.8691544,28.228229 14.7707044,28.2099185 C14.6184499,28.1815938 14.5166116,27.7766736 14.6634762,27.7835652 C14.6958056,27.7850015 14.7475134,27.5810836 14.7783842,27.3302402 C14.8229675,26.9679852 14.8776174,26.8761798 15.0440398,26.8839878 C15.159277,26.8893884 15.254515,26.8250545 15.2556772,26.7410111 C15.2567692,26.6569676 15.3324729,26.5917087 15.4237516,26.5959919 C15.599509,26.6042365 15.643788,26.8289844 15.500073,26.9833714 C15.3466455,27.1481949 15.4880142,27.3274652 15.7488743,27.2988848 C16.0885066,27.2616777 16.1717045,27.0937459 15.8670974,27.060259 C15.6298307,27.0341749 15.6292129,27.0318193 15.834236,26.9346678 L16.0431917,26.8356634 L15.8590727,26.6398866 C15.646933,26.4143143 15.6189216,26.146433 15.8084008,26.1553182 C15.879554,26.1586505 15.9137398,26.2290688 15.8843697,26.3117879 C15.8550011,26.39451 15.8705169,26.4640434 15.9188488,26.46631 C15.9671807,26.4686081 16.0086284,26.332908 16.0109543,26.1648211 C16.0135283,25.9796876 16.0705011,25.8618068 16.1555117,25.8657941 C16.2775973,25.8715394 16.2752916,25.8430711 16.1377792,25.6469783 C16.0115487,25.4669697 15.9708155,25.4608423 15.9355049,25.6165479 C15.9086511,25.7349631 15.8308336,25.7685104 15.7373225,25.7019846 C15.5926278,25.5990503 15.5920366,25.577261 15.7274945,25.3402036 C15.8067753,25.201467 15.9249843,25.0904576 15.9901829,25.0935142 C16.0972847,25.0985414 16.147796,24.9153068 16.1254224,24.6029189 C16.1208828,24.5396335 16.175397,24.4905852 16.2465486,24.4939232 C16.3177002,24.4972556 16.3553181,24.4349728 16.3301428,24.3555055 C16.2705602,24.1674304 16.4305288,23.9966777 16.5413309,24.1300768 C16.5998762,24.2005612 16.5952835,24.2999563 16.5268229,24.4442314 C16.454818,24.5959612 16.4528477,24.6565061 16.5198029,24.6596459 C16.6171126,24.6642135 16.6460288,24.4804934 16.6246225,23.9936614 C16.6078915,23.6131447 16.7673219,23.4532306 17.1484486,23.4682404 C17.3317517,23.4754509 17.452087,23.4109044 17.4412404,23.3111703 C17.4294624,23.2029273 17.6024539,23.1480158 17.9207906,23.1589435 C18.194672,23.1683372 18.4664615,23.1107226 18.5247649,23.0308876 C18.5830683,22.9510584 18.7388921,22.9308605 18.8710381,22.9860075 C19.0420828,23.057391 19.1435249,23.0125799 19.223141,22.8304312 C19.2846518,22.6897153 19.3010521,22.6249821 19.2595873,22.6865783 C19.2181241,22.7481775 19.0828144,22.5010054 18.958902,22.1373083 C18.8349881,21.7736142 18.732585,21.5382632 18.7313354,21.6143148 C18.7300874,21.6903636 18.6561075,21.6245991 18.5669333,21.4682241 C18.4777605,21.3118291 18.4069755,21.1086236 18.4096369,21.0166601 C18.4122889,20.9246967 18.4508724,20.9715761 18.4953558,21.1208325 C18.5398392,21.2700889 18.6378618,21.3950998 18.7131801,21.3986332 C18.8143929,21.4033732 18.8264533,21.3591883 18.7594029,21.2292622 C18.7095063,21.1325789 18.6910235,20.9539234 18.7183266,20.8322563 C18.7589225,20.6513544 18.7802414,20.6487833 18.8353125,20.8181514 C18.8848831,20.970608 18.9034097,20.9445987 18.9055125,20.7195865 C18.9091005,20.3373578 18.7206026,19.836415 18.6282381,19.9826609 C18.5903489,20.0426455 18.587792,20.0059297 18.6225597,19.9010707 C18.6573228,19.7962088 18.7199771,19.7516017 18.7617944,19.8019485 C18.8036102,19.8522924 18.8387757,19.8247289 18.8399379,19.7406769 C18.8410299,19.6566334 18.8069034,19.5455551 18.7639441,19.493838 C18.6589998,19.3674884 18.7631641,18.9253152 18.9542501,18.6854254 C19.0394198,18.5785441 19.0861216,18.4185496 19.0580291,18.3298753 C19.0247824,18.2249245 19.0752156,18.2102565 19.2025319,18.2878508 C19.3622946,18.3852177 19.3796215,18.3694294 19.2971552,18.2016355 C19.1744831,17.9520332 19.1707531,17.4899867 19.2908684,17.4224641 C19.3733628,17.3760931 19.3959719,17.1128569 19.3702506,16.4982849 C19.3635582,16.3384542 19.2892258,16.2259567 19.1861862,16.2197258 C19.0868501,16.2136932 19.0518671,16.1633119 19.103929,16.1011929 C19.2346507,15.9452144 19.3191372,15.4877441 19.235763,15.3873636 C19.1966413,15.3402601 19.1466901,15.3873119 19.1247596,15.4919382 C19.1028307,15.5965559 19.0636388,15.6447567 19.037668,15.5990551 C19.0116971,15.5533506 19.0248448,15.4190925 19.0668743,15.3006945 C19.1313428,15.1191146 19.1694458,15.1312862 19.3103856,15.3784727 C19.47356,15.664653 19.4777174,15.6647047 19.4880478,15.3807708 C19.4939134,15.2196243 19.5161059,15.176014 19.5378367,15.2829557 C19.5594022,15.3890872 19.6152736,15.4777155 19.6619909,15.4799102 C19.7087098,15.4822084 19.7270288,15.3805726 19.7026991,15.2542948 C19.6783693,15.1280171 19.6849806,15.036226 19.7173943,15.0503223 C19.749808,15.0644272 19.8832597,15.0005472 20.0139565,14.908397 C20.1446533,14.8162497 20.2852546,14.7813896 20.3264058,14.8309349 C20.3675586,14.8804859 20.4022905,14.8441493 20.4035899,14.7501807 C20.4048379,14.6562178 20.4401673,14.6205304 20.4819846,14.6708743 C20.5238004,14.7212211 20.5809074,14.697935 20.608886,14.6191256 C20.6368661,14.540322 20.7243603,14.4794554 20.8033212,14.4838679 C21.0324884,14.4966801 21.1753454,14.419172 21.557926,14.0744807 C21.7554938,13.896483 21.9688909,13.7532736 22.0321411,13.7562382 C22.0953897,13.7591971 22.1634588,13.6786009 22.1834002,13.5771144 C22.2221803,13.3797893 22.9974317,13.3197989 22.9947407,13.5143347 C22.9939607,13.5763359 23.0965962,13.579269 23.2229936,13.5208269 C23.4720835,13.4056924 23.9996303,13.4543385 24.3814496,13.6276451 C24.5795338,13.7175574 24.6405594,13.6727176 24.7345541,13.3681951 C24.7970524,13.1657192 24.8269389,12.9329709 24.8009649,12.8509843 C24.7339987,12.6395974 24.1740929,12.4689969 23.2595148,12.3813137 C22.8262372,12.3397746 22.3903764,12.2191877 22.2909357,12.1133434 C22.1914951,12.0074991 22.0804917,11.9285863 22.0442607,11.9379828 C22.0080281,11.9473765 21.8428226,11.9405683 21.6771381,11.922815 C21.4503812,11.8985695 21.3662036,11.8145031 21.336718,11.5829326 C21.3048987,11.3330315 21.3389332,11.2763131 21.5180399,11.2807657 C21.7286493,11.285994 21.7315369,11.2759683 21.582443,11.057009 C21.4428495,10.8520051 21.5066722,10.8353119 22.1862457,10.8990655 C22.6041884,10.9382749 22.945727,11.0124794 22.9452231,11.0639637 C22.9447551,11.115451 23.0473002,11.1403428 23.1731813,11.1192831 C23.7367266,11.0250043 24.5959902,10.9347156 24.9135516,10.9364163 C25.1044005,10.9375653 25.2430658,10.8830876 25.2216984,10.8156426 C25.2003327,10.7481975 25.2505413,10.6860009 25.3332759,10.6774317 C25.6604141,10.6435425 25.7389695,10.6191505 25.8837999,10.5064807 C25.9665563,10.4421008 26.1093353,10.1346913 26.2010899,9.82335193 C26.3704481,9.24868159 26.6418647,8.9227748 26.6932012,9.23244801 C26.7128307,9.35085746 26.7589739,9.34711435 26.8465945,9.22000926 C26.9260359,9.10476265 26.9916214,9.0942486 27.0257433,9.19128235 C27.0825414,9.35281089 28.4214176,9.41696383 28.5097464,9.26242742 C28.5380932,9.21281892 28.6044306,9.24165786 28.6571633,9.32651715 C28.7589268,9.4902749 29.2600253,9.48824391 29.4134263,9.32344337 C29.4636771,9.26946264 29.632767,9.29687098 29.789182,9.38435017 C29.9455985,9.4718351 30.7622086,9.61057745 31.6038739,9.69266747 C32.4455376,9.77476036 33.6191365,9.89873421 34.2118695,9.96816428 C37.4064906,10.3423782 38.3821099,10.4274357 40.3697185,10.5050243 C41.9311521,10.5659741 42.5475128,10.638659 42.5458109,10.7616417 C42.5440949,10.8857391 42.5741436,10.888675 42.6544025,10.772242 C42.7664744,10.6096592 43.2666011,10.5899669 44.7056668,10.6914791 C45.1390972,10.7220532 45.5311408,10.7430727 45.5768785,10.7381862 C45.622613,10.7333026 46.0716949,10.682976 46.5748323,10.6263524 C47.0779713,10.5697316 47.551344,10.5618719 47.62677,10.6088864 C47.7021976,10.6559066 47.7843144,10.6368951 47.8092526,10.5666607 C47.8341923,10.4964205 48.165087,10.4383721 48.5445726,10.4376683 C48.9240598,10.4370937 49.4490419,10.3769741 49.7112015,10.3043496 C49.9733611,10.2317308 50.6655565,10.1639611 51.249413,10.1537487 C51.8332727,10.1434932 52.572722,10.1213247 52.8926375,10.1044361 C53.2125514,10.0875447 53.5432355,10.1433209 53.6274911,10.2283755 C53.7117452,10.3134301 53.7608274,10.3203504 53.7365585,10.2437444 C53.7115658,10.1648488 54.0407336,10.1264955 54.4958277,10.155277 C54.937693,10.1832283 55.4310009,10.1300548 55.5920678,10.0371232 C55.8131806,9.90954989 55.8992771,9.91215542 55.9435436,10.0477809 C55.9836372,10.1706057 56.0033057,10.1742109 56.0057673,10.0591568 C56.0079513,9.95560775 56.2408079,9.8886051 56.6114467,9.88483613 C57.4349629,9.8764766 59.9415367,9.97819572 60.4496162,10.0406021 C60.6775712,10.0686108 61.2007422,10.0644741 61.6122187,10.0314669 C62.6049216,9.95178132 64.1455028,9.97756085 64.1441627,10.0738391 C64.1425091,10.1927168 64.5413403,10.1572391 65.2077349,9.97923276 C65.5420335,9.88993803 65.9159546,9.87050715 66.038672,9.93606483 C66.3260693,10.0895872 66.8833309,10.1537574 66.8849128,10.0335094 C66.8855368,9.98253635 66.9888166,9.94583772 67.1143217,9.95195368 C69.4355206,10.0650889 73.8168556,9.98384055 73.9647733,9.82493478 C74.0004442,9.78661883 74.0287801,9.81617307 74.027752,9.89062748 C74.02666,9.96507614 74.1378584,10.0010681 74.2747312,9.97061181 C74.4115978,9.94015267 74.5886812,9.96917547 74.6682428,10.0352129 C74.8513681,10.1870834 75.1826013,10.2489698 75.1429836,10.123913 C75.1265459,10.0720178 75.7552696,10.0740804 76.5401524,10.1285093 C77.3250336,10.1829295 77.9670407,10.2392314 77.9668426,10.2536293 C77.9668426,10.2680215 78.1996929,10.3043467 78.4847361,10.3343433 C78.7697637,10.36434 79.0035734,10.3445701 79.004305,10.2903682 C79.005085,10.2361863 79.1357694,10.2523567 79.2948238,10.3263027 C79.4538939,10.4002515 79.600913,10.4131872 79.6215549,10.3550554 C79.6421906,10.2969179 79.9973574,10.2691361 80.4107948,10.2933184 C80.8589828,10.3195174 81.1638677,10.2755939 81.1658863,10.1845325 C81.1679455,10.0944679 81.1933392,10.10119 81.2279291,10.2009068 C81.3006423,10.4105242 81.9276968,10.4291852 82.0138852,10.2243193 C82.0559397,10.1243525 82.0766658,10.1253263 82.0760793,10.2272494 C82.0760793,10.3113331 82.2153452,10.3786431 82.3866472,10.3768477 C82.5579586,10.375124 82.7837624,10.4372603 82.8884384,10.5150844 C83.0022544,10.5997225 83.1409025,10.5990273 83.2334199,10.5133608 C83.3825263,10.3752964 83.730907,10.3328323 85.523216,10.2342588 C85.9802383,10.2091227 86.7284518,10.1442114 87.1858875,10.0900066 C87.6433216,10.0358018 88.6711776,10.0132224 89.4700146,10.0398293 C90.2688532,10.0664591 91.0725199,10.0435638 91.2559494,9.98902863 C91.4393789,9.93447623 92.4484805,9.91738085 93.4983949,9.95104017 C95.964209,10.0300851 97.8198852,9.99345258 98.5590335,9.85113659 C98.8827803,9.78880495 99.5785028,9.65476231 100.105103,9.5532644 C100.631685,9.45176935 101.51173,9.31055361 102.060739,9.23945163 C102.609748,9.16834679 103.227449,9.08362251 103.433402,9.05116972 C104.108139,8.9448543 104.794639,9.00556576 105.349583,9.22063264 C105.699525,9.3562495 106.763668,9.47144728 108.317689,9.54192876 C109.65011,9.6023673 110.766043,9.68163346 110.797541,9.71808791 C110.829037,9.75454811 112.23581,9.89405172 113.923695,10.0281001 C115.61158,10.1621514 117.290865,10.3182017 117.655431,10.3748827 C119.702338,10.6931223 121.256327,10.8241371 124.663625,10.9657522 C125.142876,10.9856599 125.665384,11.0296897 125.824752,11.0635731 C126.169437,11.1368554 127.764947,11.3445337 129.264467,11.5113049 C132.505314,11.8717357 133.714497,11.9878298 135.898383,12.1482351 C137.221427,12.2454096 138.434099,12.3682746 138.593207,12.4212671 C138.752314,12.4742597 139.180881,12.556815 139.54556,12.6047229 C140.220458,12.6933799 140.990983,12.8973151 141.090319,13.01357 C141.120513,13.0489156 141.399691,13.1256366 141.710708,13.1840585 C142.021733,13.2424833 142.499346,13.3661785 142.772071,13.4589319 C143.044798,13.5516911 143.37958,13.6610889 143.516012,13.702042 C143.652451,13.7429922 144.067032,13.9356349 144.437302,14.1301362 C144.807575,14.3246346 145.188319,14.4874242 145.283398,14.4918855 C145.378491,14.4963382 145.455485,14.5572967 145.45451,14.62733 C145.453574,14.6973662 145.499421,14.7576324 145.556451,14.7612578 C146.116786,14.7968533 147.455896,15.0948117 147.665939,15.230621 C147.812281,15.3252446 148.008119,15.6104827 148.10114,15.8644831 C148.284821,16.3660751 148.782071,16.8800052 149.240664,17.0422807 C149.814448,17.2452995 150.807684,17.4622221 151.015882,17.4299905 C151.132866,17.4118926 151.227558,17.4712338 151.22631,17.5618844 C151.22475,17.652535 151.249897,17.6814142 151.281534,17.6260661 C151.313171,17.5707122 151.415023,17.6637385 151.507875,17.832782 C151.600741,18.0018313 151.925658,18.3941374 152.229921,18.7045777 C152.673179,19.1568369 152.899972,19.2867113 153.371076,19.3580603 C153.993282,19.4523018 154.103247,19.5884214 154.03353,20.1780584 C153.989117,20.5538437 153.654653,20.8478407 153.29097,20.8307798 C153.186372,20.8258675 153.076751,20.8895378 153.047392,20.9722598 C153.018033,21.0549789 152.867337,21.1167188 152.712553,21.1094566 C152.275551,21.0889456 151.588573,21.3681051 151.588215,21.5663237 C151.588215,21.8922908 152.215179,22.3200029 152.832907,22.4146609 C153.167543,22.4659384 153.94486,22.5721476 154.560296,22.6506841 C155.803304,22.8093055 155.933439,22.8569979 155.994996,23.1764354 C156.085742,23.6474102 154.924134,25.1802896 153.977589,25.8386529 C153.672188,26.0510769 153.51717,26.2683327 153.410575,26.6332852 C153.22765,27.2596065 153.307069,27.5653096 153.799468,28.1303938 C153.990537,28.3496519 154.145398,28.6342006 154.14362,28.7627277 C154.141904,28.8912518 154.194975,29.1021792 154.261696,29.2314531 C154.450877,29.5980459 154.399257,29.9658882 154.118192,30.2541053 C153.976544,30.39936 153.696664,30.7893221 153.496235,31.1206784 C153.19113,31.6250913 153.065472,31.7291947 152.724113,31.7602916 C152.423766,31.7876396 152.278655,31.8846964 152.173012,32.1288435 C152.094138,32.3111215 152.046823,32.5145942 152.067852,32.5810051 C152.088912,32.6474188 152.067868,32.6999603 152.021146,32.6977685 C151.974424,32.6954703 151.89034,32.8464475 151.834289,33.0330373 C151.778269,33.2196301 151.76125,33.3253164 151.796506,33.2679028 C151.88424,33.1249922 152.10732,33.5794519 152.041051,33.7661079 C152.01021,33.8529895 152.051191,33.8864621 152.138458,33.8457819 C152.221278,33.807196 152.138458,33.905465 151.952911,34.0641783 C151.768051,34.2228801 151.497828,34.3489539 151.352452,34.3443403 C151.20706,34.3397153 150.991405,34.3985164 150.873204,34.4749874 C150.715161,34.577238 150.658314,34.5644545 150.658345,34.426686 C150.658361,34.3236455 150.619517,34.3553284 150.571968,34.4970899 C150.408683,34.9840111 150.558552,35.5251944 150.96916,35.9330562 C151.182022,36.1443972 151.411997,36.483257 151.480231,36.6860776 C151.54845,36.8888982 151.750174,37.1428584 151.928497,37.2504378 C152.593104,37.6513448 152.686018,38.4482494 152.100753,38.7278455 C151.736992,38.9016232 151.557841,39.3875246 151.660021,39.923155 C151.713202,40.2018577 151.710285,40.3284113 151.650661,40.325619 C151.497376,40.3184373 151.345619,40.6923582 151.349223,41.0684251 C151.352811,41.4403323 151.346259,41.4463477 150.643089,41.7111236 C150.528319,41.7543433 150.319903,41.9646099 150.17994,42.1783783 C150.039961,42.3921467 149.821405,42.6606658 149.694234,42.7750908 C149.567047,42.8895129 149.461638,43.0820924 149.459969,43.2030442 C149.456069,43.4868 149.154661,43.7665541 148.795799,43.8195667 C148.403443,43.8775233 148.241375,44.0578364 148.21927,44.4610185 C148.200846,44.7970918 148.519539,45.5304007 148.687426,45.5382748 C148.790027,45.5431009 149.249073,46.4434654 149.246436,46.6347235 C149.242848,46.8962073 148.941253,47.0617145 148.361058,47.1206621 C148.044676,47.1528047 147.598087,47.243461 147.368658,47.3221239 C146.988735,47.4523775 145.632891,47.812182 145.323847,47.8647609 C145.19459,47.886737 145.130644,48.4295233 145.25661,48.4354324 C145.294072,48.4371561 145.285601,48.5653585 145.237795,48.7202569 C145.189982,48.8751495 145.176263,49.0511104 145.207318,49.1112761 C145.311355,49.3128815 145.24686,51.2524822 145.128969,51.4675779 C145.067422,51.5798627 144.84503,51.6849975 144.634758,51.7012109 C144.295413,51.7273812 144.068328,51.9568603 144.142665,52.1984939 C144.157048,52.2452325 144.115501,52.3696919 144.050329,52.4750765 C143.985172,52.5804555 143.932552,52.6158298 143.933405,52.5536877 C143.934185,52.4915428 143.889926,52.5195171 143.834885,52.6158499 C143.761829,52.7436904 143.705765,52.7442936 143.627347,52.618148 C143.548882,52.4918961 143.451977,52.4933382 143.268249,52.6234912 C142.844711,52.9235208 142.976153,53.3899338 143.545202,53.6062359 C144.181671,53.8481654 144.323215,53.9581693 144.223216,54.133165 C144.196076,54.180665 143.605356,54.2150109 142.910493,54.2094896 C141.432752,54.1977403 141.262103,54.3145065 141.126145,55.4303315 C141.08217,55.7912133 140.954194,56.3403483 140.841718,56.6506248 C140.655912,57.1632278 140.508909,57.8322171 140.49522,58.2273903 C140.492318,58.3113533 140.364067,58.3962815 140.210237,58.4161232 C140.018384,58.4408858 139.916223,58.5435759 139.884901,58.7431762 C139.859794,58.9032138 139.806679,58.9949388 139.766865,58.9470051 C139.727049,58.8990714 139.693503,58.9297689 139.692322,59.0152344 C139.69123,59.1006941 139.518766,59.3449532 139.30927,59.5580322 C138.714909,60.1625412 138.626335,60.6742019 139.059464,61.0009332 C139.262058,61.1537517 139.270284,61.2690701 139.124332,61.9092465 C139.01731,62.3786269 139.286357,62.6947579 140.175618,63.1445122 C141.036466,63.5799001 141.27624,63.866632 141.024089,64.159138 C140.867511,64.3407869 139.743137,64.1097105 137.974815,63.5324806 C137.173699,63.270968 136.835252,63.3743677 136.649256,63.9374611 C136.463854,64.4987303 136.272624,64.6584261 135.720758,64.7128549 C135.263393,64.7579648 134.832938,65.1546059 134.827666,65.535812 C134.82439,65.7696088 135.18988,66.0075049 135.613334,66.0472572 C135.931709,66.0771447 136.305393,66.4973907 136.119031,66.6159639 C136.060615,66.6531307 135.956069,66.7828615 135.8867,66.9042499 C135.817338,67.0256412 135.761145,67.0839022 135.761838,67.0337192 C135.764428,66.8488931 135.253292,67.4048536 135.149706,67.6995745 C135.020655,68.0667504 134.584122,68.5606895 134.412173,68.5340912 C133.984764,68.4679762 133.415988,68.5447776 133.414267,68.6688176 C133.410913,68.9057542 133.839261,69.6045018 133.928808,69.5083098 C133.973886,69.459882 133.98468,69.4937165 133.952818,69.5835053 C133.920932,69.6732884 133.932814,69.7924419 133.979188,69.8482899 C134.025569,69.9041379 134.040111,70.0157936 134.011477,70.0964243 C133.982859,70.1770521 134.004395,70.3482415 134.059466,70.4768519 C134.215876,70.8424392 134.056564,70.9810982 133.421861,71.031896 C133.102511,71.057463 132.672239,71.1384355 132.465722,71.21185 C132.259189,71.2852674 131.565393,71.4691799 130.923942,71.6205449 C130.282475,71.7719041 129.547972,72.0171428 129.2917,72.1655173 C129.029769,72.3171695 128.600647,72.424726 128.311604,72.4111669 C128.028816,72.397895 127.525275,72.5140983 127.192602,72.6693787 C126.621473,72.9359702 126.425901,72.9396127 123.684567,72.7346893 C122.087806,72.615329 120.464401,72.4724931 120.076983,72.4172828 C119.067348,72.2734012 117.826386,72.049791 117.656042,71.9810561 C117.575772,71.9486665 116.605169,71.8327649 115.499107,71.7234935 C113.917611,71.5672507 113.248159,71.5645676 112.36458,71.7109398 C111.746636,71.8133053 110.61112,71.9092532 109.841189,71.9241624 C109.071275,71.9390717 108.304787,71.975417 108.13788,72.0049339 C107.561837,72.1068053 105.586205,72.2562685 104.426883,72.285682 C103.787291,72.3019127 102.628297,72.3502859 101.851345,72.3931781 C101.074384,72.4360702 99.5045729,72.4694538 98.3628853,72.4673624 C97.2211993,72.4653516 96.1747575,72.4809503 96.0374494,72.5021622 C95.9001491,72.5233914 94.9619027,72.5461632 93.9524423,72.5527561 C92.9429896,72.5593632 92.0085137,72.5838788 91.8758373,72.6072568 C91.6206166,72.6522287 90.9919319,72.7022164 88.7671035,72.8544461 C87.0208317,72.9739328 85.7094723,73.1328615 84.6267043,73.3562362 C84.1558791,73.4533677 83.6279845,73.5261473 83.4536202,73.5179687 C83.2792621,73.5097816 83.0274453,73.562596 82.8940388,73.6353182 C82.7606307,73.7080375 82.415412,73.7922533 82.1268885,73.8224682 C81.8383571,73.8526774 81.2385262,73.9966969 80.7939184,74.1425061 C80.3492965,74.2883182 79.7609753,74.4337826 79.4865198,74.4657671 C79.2120643,74.4977488 78.7065276,74.5775953 78.3631138,74.6432075 C78.0196861,74.7088169 77.514179,74.7865232 77.2397625,74.8158936 C76.9653444,74.8452669 76.3344508,74.9562044 75.8377795,75.0624279 C75.3411098,75.1686514 74.6296032,75.2820423 74.2566508,75.3144089 C73.8836985,75.3467726 73.3638254,75.4148123 73.1013819,75.4656101 C72.8389322,75.516405 72.1658842,75.5502769 71.6057241,75.5408804 C71.0455624,75.5314867 70.3063205,75.5734595 69.962966,75.6341624 C69.2851476,75.7539938 67.8427715,75.8304993 66.7222609,75.8060585 C66.3341938,75.797584 65.8478481,75.8407376 65.6414913,75.9019374 C65.4351361,75.9631315 64.0148684,75.9910799 62.4853398,75.9640392 C60.9558128,75.9370072 59.6237678,75.9415173 59.5252413,75.9740649 C59.4267133,76.0066183 58.6228172,76.0458305 57.7388041,76.0612023 C56.8547911,76.0765712 55.944503,76.1020577 55.7159412,76.1178259 C55.4873793,76.1335969 54.646324,76.1578568 53.8469301,76.1717377 C53.0475361,76.1856128 52.0754658,76.2269335 51.6867746,76.263546 C51.298085,76.3001613 50.9429791,76.3099715 50.8976517,76.2853497 C50.8523228,76.2607308 50.2727625,76.2895726 49.6097375,76.349405 C48.9467126,76.4092575 48.0303046,76.4785669 47.5732745,76.5034272 C47.1162428,76.528276 46.6112256,76.5706424 46.451012,76.5975538 C46.2908,76.6244709 45.6551468,76.6670097 45.0384507,76.6920969 C44.4217546,76.7171755 43.8980735,76.7581918 43.8747141,76.7832301 C43.8513546,76.80828 43.3648655,76.8512354 42.7936262,76.8787098 C42.222387,76.9061727 41.6799453,76.9527534 41.5882017,76.9821927 C41.4201772,77.0361131 35.5395559,76.9586654 32.9957465,76.8690259 C32.24258,76.8424823 30.9922431,76.7411625 30.217221,76.6438615 L30.2172772,76.6435082 Z M14.7978545,57.231356 C14.8263433,57.2267826 14.8035155,57.0114306 14.7471342,56.7528761 C14.6593735,56.3504304 14.587164,56.28641 14.2454313,56.3080409 C14.0258765,56.3219308 13.8364743,56.4406678 13.8245357,56.5718803 C13.7932756,56.9154466 14.1870638,57.3385789 14.4884701,57.2852808 C14.6301425,57.2602114 14.7693647,57.2359634 14.7978545,57.231356 L14.7978545,57.231356 Z M15.9466001,47.7387061 C15.9474345,47.611556 15.8816879,47.5015241 15.800319,47.494182 C15.71895,47.4872835 15.6505807,47.7306446 15.6483835,48.0359844 C15.6461585,48.3413142 15.7120163,48.4513461 15.7946646,48.2805084 C15.8773158,48.1096609 15.945685,47.8658464 15.9466001,47.7387061 Z M11.9972369,44.2002338 C11.9978851,44.0869201 11.9189056,43.8443967 11.8217587,43.6612993 C11.720476,43.4703967 11.6738494,43.5529132 11.7124553,43.8547445 C11.7771717,44.3607039 11.9948665,44.6248001 11.9972369,44.2002338 L11.9972369,44.2002338 Z M11.8562948,38.8203825 C11.7035609,38.431992 11.6848737,38.4752313 11.7652152,39.0311175 C11.8208085,39.4157897 11.9072856,39.6356823 11.9573786,39.5197773 C12.0074746,39.4038724 11.9619721,39.0891426 11.8562948,38.8203825 L11.8562948,38.8203825 Z M13.830981,36.8493682 C13.6782442,36.4609775 13.659554,36.5042167 13.7398985,37.0601032 C13.7954947,37.4447684 13.8819688,37.6646684 13.9320648,37.5487634 C13.9821578,37.4328584 13.9366583,37.1181284 13.830981,36.8493682 L13.830981,36.8493682 Z M11.9549313,35.1251962 C11.9032216,34.8521373 11.8294303,34.6262376 11.7909493,34.6232144 C11.7524654,34.6204576 11.7191625,34.8376826 11.7169403,35.1065237 C11.7148524,35.3753647 11.7885094,35.6012552 11.8809253,35.6085147 C11.9733381,35.6158661 12.006641,35.3982736 11.9549313,35.1251962 L11.9549313,35.1251962 Z M15.8912723,29.1065444 C15.8051603,28.9454731 15.7011042,28.9525688 15.6600386,29.1223126 C15.6189708,29.292076 15.6894268,29.4238581 15.8166043,29.4151659 C15.9571471,29.4053108 15.9864333,29.2845271 15.8912723,29.1065346 L15.8912723,29.1065444 Z M16.6757992,27.5917054 C16.4788967,27.453542 16.167229,27.0335393 16.1710795,26.9115425 C16.1723152,26.874419 16.261469,26.9063153 16.3693413,26.9824099 C16.6248733,27.1626787 16.7799941,27.041865 16.5696965,26.8263641 C16.3848198,26.6369156 16.0437819,26.7769405 16.0352975,27.0457795 C16.0326531,27.1296312 15.9843468,27.1738854 15.9279565,27.1441219 C15.8715638,27.1143584 15.8139106,27.1820335 15.7998384,27.2945115 C15.7827115,27.4315177 15.8583392,27.500747 16.0290053,27.5042564 C16.1691197,27.5071494 16.2822512,27.5572533 16.2804075,27.6156231 C16.2786775,27.6739929 16.4102111,27.7229676 16.5729538,27.724456 C16.8268546,27.7267903 16.8414483,27.7079362 16.6757992,27.5917054 Z M15.6483382,28.4062144 C15.6491726,28.2790741 15.7176231,28.0352596 15.8002722,27.8644121 C15.8829213,27.6935645 15.9487491,27.8036063 15.9465546,28.1089361 C15.9443296,28.414266 15.8759875,28.6580805 15.7946178,28.6507385 C15.7132509,28.6438399 15.6474232,28.5333547 15.6483382,28.4062144 Z M15.9431077,24.1558791 C15.955262,23.807096 15.9347331,23.6796956 15.8974722,23.8727591 C15.8602162,24.0658278 15.7771691,24.1499903 15.7129241,24.0597851 C15.6486791,23.9695799 15.6289925,24.0947998 15.6691759,24.3380138 C15.7755905,24.9821191 15.9176009,24.8876962 15.9431077,24.1558791 L15.9431077,24.1558791 Z M15.8968168,24.3716615 C16.0239687,23.7074102 15.8859595,23.5523796 15.7255574,24.1792921 C15.6333152,24.5398208 15.6230487,24.7614273 15.6982862,24.7679771 C15.7646479,24.7738056 15.853987,24.5954027 15.8968168,24.3716615 L15.8968168,24.3716615 Z M19.8959715,20.5501719 C19.8965349,20.4368583 19.8301942,20.199351 19.7485759,20.0223737 C19.6669596,19.8453963 19.5990712,19.9290461 19.5977151,20.2083586 C19.5964003,20.4876316 19.6626866,20.7251389 19.7451106,20.7361667 C19.8275346,20.7472044 19.8954211,20.6634363 19.8959715,20.5501719 Z M4.78761202,60.866671 C4.78955831,60.6711417 4.85875711,60.410417 4.9413825,60.2872923 C5.02400511,60.1641533 5.08896379,60.3284877 5.08573295,60.6524262 C5.08250768,60.9763788 5.0133061,61.2370964 4.93196248,61.2318049 C4.85061885,61.226833 4.78566296,61.0622074 4.78761202,60.866671 Z M8.77275149,47.9211577 C8.82991166,47.6242933 8.93282052,47.4924423 9.00143544,47.6281368 C9.072667,47.7690052 9.02807785,48.0005698 8.8975059,48.1678893 C8.73688866,48.3736927 8.69975628,48.3002527 8.77275149,47.9211577 Z M9.00801869,48.1279505 C8.85665699,47.9244111 8.84671882,47.825929 8.97533026,47.8040095 C9.29950416,47.7487825 9.37846632,47.7067116 9.5592102,47.4929191 C9.65650782,47.3778269 9.78214003,47.4390072 9.83839074,47.6288503 C9.90226551,47.8444326 9.87777205,47.8930734 9.77315245,47.7583972 C9.67388992,47.6306237 9.60325298,47.7271305 9.59978321,47.995266 C9.59318732,48.5058088 9.33248081,48.5642607 9.00801869,48.1279505 Z M8.78867387,46.8251567 C8.86731226,46.4385126 8.94137887,46.4194529 9.00564092,46.7692784 C9.06990298,47.1191138 9.02914558,47.3195167 8.88624323,47.3562958 C8.72283265,47.398377 8.6987489,47.2672059 8.78867387,46.825137 L8.78867387,46.8251567 Z M11.6990807,44.8692871 C11.7023571,44.5476524 11.7715908,44.3931111 11.8529247,44.5258763 C11.9342558,44.6586344 11.9991794,44.9260968 11.9971966,45.1202271 C11.9952195,45.3143575 11.9259885,45.4688917 11.8433582,45.463638 C11.7607222,45.4587017 11.6958014,45.1909219 11.6990807,44.8692871 Z M11.7854288,42.0833886 C11.9947251,41.3800258 12.0159009,41.3602896 11.9868028,41.8957023 C11.9726288,42.1562491 11.8880705,42.4175442 11.7988665,42.4763509 C11.6693863,42.5617133 11.6666758,42.482465 11.7854288,42.0833886 L11.7854288,42.0833886 Z M11.7230027,37.4501607 C11.6722634,37.1861548 11.7015444,36.9648055 11.8136484,36.7648978 C12.0168508,36.4025215 12.0557105,36.6305583 11.9084866,37.3214289 C11.8476932,37.6067132 11.7642249,37.6646502 11.7230027,37.4501607 Z M13.685354,26.1657854 C13.7264218,25.9960219 13.8304756,25.9889263 13.9165897,26.1500173 C14.0117485,26.3280097 13.9824645,26.4490596 13.8419218,26.4586486 C13.7147444,26.4675181 13.6442884,26.3355587 13.685354,26.1658051 L13.685354,26.1657854 Z M15.6600386,25.1802695 C15.7011043,25.0105159 15.8051608,25.0034203 15.8912731,25.1645014 C15.9864322,25.3424939 15.9571481,25.4635536 15.8166049,25.4731426 C15.6894269,25.4820122 15.6189707,25.3500429 15.6600386,25.1802794 L15.6600386,25.1802695 Z M15.733223,23.3530834 C15.7305385,22.9328922 15.7704811,22.7001073 15.8218596,22.8357868 C15.8732382,22.9714739 15.8753888,23.3152727 15.8266321,23.5997843 C15.7727599,23.9141866 15.7361193,23.817433 15.733217,23.3530834 L15.733223,23.3530834 Z M19.683614,15.409979 C19.5823409,15.1069151 19.5693939,14.9085928 19.6511757,14.9131194 C19.7260352,14.9178248 19.8177527,15.1494517 19.8549848,15.4291017 C19.9390325,16.0603657 19.8994829,16.0559615 19.683614,15.4099978 L19.683614,15.409979 Z" id="path2987-copy-2" fill="#F7F6F2" transform="translate(78.000000, 43.000000) rotate(-180.000000) translate(-78.000000, -43.000000) "></path>
                                <g id="noun_Paw_1686619_000000" transform="translate(42.000000, 0.000000)" fill="#1DB78E">
                                    <path d="M16.8739726,78.1770833 C20.6792975,78.7840687 24.5482833,77.5649695 27.3205479,74.8854167 C29.3850947,72.8840961 32.0290113,71.5878955 34.8739726,71.1822917 L34.8739726,71.1822917 C35.6248211,71.0531776 36.1713463,70.3979445 36.1643836,69.6352083 C36.1416946,69.2480419 35.9622247,68.8869014 35.6674618,68.6352719 C35.372699,68.3836423 34.9881602,68.2633068 34.6027397,68.3020833 L34.3643836,68.3020833 C30.8238644,68.5633952 27.4584836,69.9469246 24.7561644,72.2520833 C22.7252264,73.9292503 20.0190398,74.5401805 17.4657534,73.8979167 C15,73.3465625 12.9452055,71.495 12.4767123,69.4377083 C12.2366503,68.3556982 12.3253861,67.2265232 12.7315068,66.1954167 C12.9374202,65.6514049 13.2137523,65.1368026 13.5534247,64.6647917 C13.9617274,64.1140494 14.4036672,63.5891233 14.8767123,63.0930208 C19.2506593,58.1504902 23.0401252,52.7189488 26.169863,46.90625 L28.3972603,42.5777083 L29.4739726,40.438125 C29.7030087,39.9148015 30.0015986,39.4248511 30.3616438,38.9815625 C31.9018081,37.2764629 34.1259674,36.3548984 36.4191781,36.4716667 C38.6956247,36.4853494 40.8389911,37.5477114 42.230137,39.351875 C42.3741891,39.560691 42.5059208,39.777763 42.6246575,40.0019792 L43.1589041,41.0717708 L44.2356164,43.2113542 L46.4054795,47.4905208 C47.970256,50.5405759 49.9024659,53.38714 52.1589041,55.9665625 C53.2700804,57.2476828 54.452794,58.4648031 55.7013699,59.6120833 L57.5342466,61.2579167 C57.9701156,61.6406828 58.3616161,62.0713046 58.7013699,62.5416667 C59.3698483,63.4613154 59.7889443,64.5386802 59.9178082,65.66875 C59.9671233,66.1378125 59.9671233,67.1746875 59.9917808,67.8988542 C60.0269089,68.4527681 59.9713825,69.0087067 59.8273973,69.5446875 C59.2931507,71.6102083 57.1643836,73.3959375 54.6821918,73.9308333 C52.0976577,74.5288295 49.3830462,73.8630941 47.3671233,72.136875 C44.6402826,69.8576245 41.2554894,68.5135985 37.709589,68.3020833 C37.325317,68.2607813 36.941122,68.3806795 36.6483452,68.6332725 C36.3555684,68.8858655 36.180363,69.2485897 36.1643836,69.6352083 C36.1690387,70.3806839 36.7177605,71.0105563 37.4547945,71.1164583 L37.6520548,71.1164583 C40.5151563,71.5731031 43.1597893,72.9272795 45.2054795,74.9841667 C48.0255219,77.6178537 51.9258391,78.7567015 55.7178082,78.0536458 C59.7970295,77.4463766 63.1948112,74.6066863 64.5205479,70.6967708 C64.8052609,69.7158097 64.9437407,68.6981329 64.9315068,67.6766667 C64.9315068,66.85375 65.0054795,66.1871875 64.9315068,65.0515625 C64.7806186,62.9869702 64.0857868,60.9993239 62.9178082,59.2911458 C62.3505917,58.46486 61.6915837,57.7056657 60.9534247,57.028125 C60.3369863,56.4603125 59.8356164,55.99125 59.309589,55.448125 C58.2573361,54.4022993 57.2587907,53.3036631 56.3178082,52.1564583 C54.4567489,49.842413 52.8681912,47.3213786 51.5835616,44.6432292 L49.4958904,40.3229167 L48.4931507,38.1833333 L47.8849315,37.03125 C47.6411248,36.5504539 47.3665817,36.0859122 47.0630137,35.6405208 C44.4782698,32.3283511 40.5303306,30.3715709 36.3324386,30.3219545 C32.1345465,30.272338 28.1415703,32.1352616 25.4794521,35.3854167 C24.4841958,36.8822063 23.6259188,38.4658892 22.9150685,40.1171875 L20.8356164,44.3305208 C17.9951304,49.8094045 14.5932728,54.9776868 10.6849315,59.7519792 C10.0764017,60.4544493 9.52660353,61.2058359 9.04109589,61.9985417 C8.51873732,62.8747053 8.11258145,63.8152551 7.83287671,64.7964583 C7.22881385,66.8188265 7.25461741,68.9774772 7.90684932,70.9847917 C9.34080933,74.8556115 12.7881165,77.6206052 16.8739726,78.1770833 Z" id="Path"></path>
                                    <path d="M9.8630137,39.9690625 C9.8630137,39.20375 9.69863014,38.5701042 9.51780822,38.5371875 L9.46849315,38.5371875 C8.03782961,38.1990802 6.83239675,37.2395965 6.18082192,35.9203125 C5.55616438,34.5625 5.75342466,33.7395833 5.91780822,31.4765625 L6.01643836,30.0446875 C6.05370164,29.7650832 6.1169907,29.489579 6.20547945,29.2217708 C6.38026975,28.7012841 6.66002896,28.2223145 7.02739726,27.8145833 C7.74754591,27.012934 8.77379286,26.5551313 9.85068493,26.5551313 C10.927577,26.5551313 11.953824,27.012934 12.6739726,27.8145833 C13.0398808,28.226499 13.3193859,28.7078321 13.4958904,29.23 C13.5816372,29.4980668 13.6421744,29.7735702 13.6767123,30.0529167 L13.7671233,31.5094792 C13.9315068,33.7889583 14.1205479,34.5625 13.4630137,35.895625 C12.8001492,37.1960224 11.5964661,38.1360361 10.1753425,38.463125 L10.1753425,38.463125 C9.99452055,38.5207292 9.83835616,39.1708333 9.83013699,39.9361458 C9.82191781,40.7014583 10.0520548,41.3351042 10.3643836,41.3680208 L10.4465753,41.3680208 C12.9978534,41.4338929 15.4321984,40.2975001 17.0219178,38.2985417 C17.8538936,37.2609604 18.4335363,36.0439219 18.7150685,34.7435417 C18.894608,33.6540599 19.0098763,32.5549331 19.060274,31.451875 L19.1424658,29.9459375 C19.1639507,29.247246 19.1032596,28.5484499 18.9616438,27.8639583 C17.9095834,23.200967 13.5081203,20.0880667 8.76700219,20.6538778 C4.02588407,21.2196889 0.478548268,25.2812092 0.550684932,30.0611458 L0.649315068,31.5423958 C0.691425993,32.6464464 0.809514216,33.7462765 1.00273973,34.8340625 C1.29944981,36.1296019 1.89318816,37.3382432 2.7369863,38.364375 C4.34266421,40.3315979 6.77667278,41.4312791 9.31232877,41.3351042 C9.63287671,41.3515625 9.8630137,40.734375 9.8630137,39.9690625 Z" id="Path"></path>
                                    <path d="M29.0383562,18.6472917 C30.6440341,20.6145146 33.0780426,21.7141957 35.6136986,21.6180208 C35.9178082,21.6180208 36.1479452,20.984375 36.139726,20.2190625 C36.1315068,19.45375 35.9753425,18.8201042 35.7945205,18.7871875 L35.7452055,18.7871875 C34.3145419,18.4490802 33.1091091,17.4895965 32.4575342,16.1703125 C31.8575342,14.8125 32.0547945,13.9895833 32.2191781,11.7265625 L32.3178082,10.2946875 C32.3550715,10.0150832 32.4183606,9.73957896 32.5068493,9.47177083 C32.6816396,8.95128411 32.9613988,8.47231448 33.3287671,8.06458333 C34.0489158,7.26293404 35.0751627,6.80513132 36.1520548,6.80513132 C37.2289469,6.80513132 38.2551938,7.26293404 38.9753425,8.06458333 C39.3412507,8.47649902 39.6207558,8.95783207 39.7972603,9.48 C39.8830071,9.74806678 39.9435443,10.0235702 39.9780822,10.3029167 L40.0684932,11.7594792 C40.2328767,14.0389583 40.4219178,14.8125 39.7643836,16.145625 C39.101519,17.4460224 37.897836,18.3860361 36.4767123,18.713125 L36.4767123,18.713125 C36.2958904,18.7707292 36.139726,19.4208333 36.1315068,20.1861458 C36.1232877,20.9514583 36.3534247,21.5851042 36.6657534,21.6180208 L36.7479452,21.6180208 C39.2992232,21.6838929 41.7335683,20.5475001 43.3232877,18.5485417 C44.1552635,17.5109604 44.7349061,16.2939219 45.0164384,14.9935417 C45.1959779,13.9040599 45.3112461,12.8049331 45.3616438,11.701875 L45.4438356,10.1959375 C45.4653206,9.49724604 45.4046294,8.79844989 45.2630137,8.11395833 C44.2843466,3.37361148 39.8479684,0.169441334 35.0464,0.735018233 C30.2448316,1.30059513 26.6723105,5.44813378 26.8191781,10.2864583 L26.9178082,11.7677083 C26.9599191,12.8717589 27.0780074,13.971589 27.2712329,15.059375 C27.5692003,16.3782194 28.1747513,17.6077129 29.0383562,18.6472917 L29.0383562,18.6472917 Z" id="Path"></path>
                                    <path d="M71.3506849,31.4930208 C71.5302245,30.4035391 71.6454927,29.3044123 71.6958904,28.2013542 L71.7780822,26.6954167 C71.7995671,25.9967252 71.738876,25.2979291 71.5972603,24.6134375 C70.6185931,19.8730907 66.182215,16.6689205 61.3806466,17.2344974 C56.5790782,17.8000743 53.0065571,21.9476129 53.1534247,26.7859375 L53.2520548,28.2671875 C53.2941657,29.3712381 53.4122539,30.4710682 53.6054795,31.5588542 C53.9021895,32.8543936 54.4959279,34.0630348 55.339726,35.0891667 C56.9454039,37.0563896 59.3794125,38.1560707 61.9150685,38.0598958 C62.2191781,38.0598958 62.4493151,37.42625 62.4410959,36.6609375 C62.4328767,35.895625 62.2767123,35.2619792 62.0958904,35.2290625 L62.0465753,35.2290625 C60.6159118,34.8909552 59.4104789,33.9314715 58.7589041,32.6121875 C58.1589041,31.2708333 58.3561644,30.4479167 58.5205479,28.1848958 L58.6191781,26.7530208 C58.6564414,26.4734165 58.7197304,26.1979123 58.8082192,25.9301042 C58.9830095,25.4096174 59.2627687,24.9306478 59.630137,24.5229167 C60.3502856,23.7212674 61.3765326,23.2634646 62.4534247,23.2634646 C63.5303167,23.2634646 64.5565637,23.7212674 65.2767123,24.5229167 C65.6426205,24.9348324 65.9221256,25.4161654 66.0986301,25.9383333 C66.184377,26.2064001 66.2449141,26.4819036 66.2794521,26.76125 L66.369863,28.2178125 C66.5342466,30.4972917 66.7232877,31.2708333 66.0657534,32.6039583 C65.4028889,33.9043557 64.1992059,34.8443695 62.7780822,35.1714583 L62.7780822,35.1714583 C62.5972603,35.2290625 62.4410959,35.8791667 62.4328767,36.6444792 C62.4246575,37.4097917 62.6547945,38.0434375 62.9671233,38.0763542 L63.0493151,38.0763542 C65.6005931,38.1422262 68.0349382,37.0058335 69.6246575,35.006875 C70.462741,33.9843958 71.0534554,32.781817 71.3506849,31.4930208 Z" id="Path"></path>
                                </g>
                            </g>
                        </g>
                    </g>
                </g>
            </g>
        </g>
    </g>
</svg>