<?xml version="1.0" encoding="UTF-8"?>
<svg width="156px" height="79px" viewBox="0 0 156 79" version="1.1" xmlns="http://www.w3.org/2000/svg" xmlns:xlink="http://www.w3.org/1999/xlink">
    <!-- Generator: Sketch 54.1 (76490) - https://sketchapp.com -->
    <title>Icon1</title>
    <desc>Created with Sketch.</desc>
    <g id="Home" stroke="none" stroke-width="1" fill="none" fill-rule="evenodd">
        <g transform="translate(-190.000000, -2805.000000)" id="Group-34">
            <g transform="translate(140.000000, 2635.000000)">
                <g id="Group-24">
                    <g id="Group-8" transform="translate(0.000000, 168.000000)">
                        <g id="Group-10" transform="translate(0.000000, 1.613460)">
                            <g id="Icon1" transform="translate(50.000000, 0.386540)">
                                <path d="M30.2172772,75.6435082 C29.4422551,75.5462073 28.1364571,75.4025411 27.315504,75.3242546 C24.392755,75.0455403 22.5856416,74.8425474 22.3411927,74.7654932 C22.2047816,74.7224948 21.6642166,74.6333982 21.139938,74.5675073 C20.6156595,74.5016164 20.0566241,74.3971654 19.8976383,74.3353996 C19.7386524,74.2736339 19.3661447,74.1908774 19.069843,74.1514957 C18.0925482,74.021607 17.1945778,73.7712204 16.4833005,73.4302722 C16.2076251,73.2981313 15.9448618,73.2299853 15.8993862,73.2788383 C15.8539091,73.3276941 15.8420984,73.2961319 15.8731392,73.2087015 C15.9113436,73.1010963 15.6353734,73.0299799 15.0189596,72.9885816 C14.5181201,72.9549481 14.0530809,72.8853715 13.9855392,72.8339734 C13.9179974,72.7825752 13.8416526,72.4999225 13.8158861,72.2058595 C13.7626074,71.5978228 13.6753519,71.5042248 12.8830482,71.2052122 C12.5877433,71.0937661 12.1239272,70.8587915 11.8523452,70.683046 C11.5807648,70.5073005 11.260475,70.3240889 11.140589,70.2759053 C10.7982969,70.138335 10.8043606,69.8005295 11.1606521,69.1580349 C11.535322,68.4824067 11.8307002,68.2010554 12.4318462,67.9471957 C12.8216278,67.7825991 13.3550028,67.1001684 13.3597077,66.7600418 C13.3612833,66.645792 13.0040464,66.4237674 12.4952821,66.2227997 C12.3590207,66.168977 11.9122835,66.0711274 11.5025324,66.0053543 C11.0927796,65.939584 10.5478654,65.7751598 10.2916073,65.6399681 C10.0068059,65.4897177 9.43415639,65.3757983 8.81849145,65.3469191 C7.72511909,65.2956301 7.25757304,65.0570043 7.18856488,64.5150367 C7.16518828,64.3314487 6.96112467,64.0409507 6.66974163,63.7764534 C6.40558214,63.5366671 6.20941213,63.2842581 6.23381053,63.2155404 C6.25820737,63.1468199 6.22911493,63.1195609 6.16917349,63.1549669 C5.89993309,63.3139703 5.49905676,62.9633239 5.35711703,62.4446653 C5.20241651,61.8793743 5.27527163,61.3580987 5.5074558,61.3689919 C5.5743096,61.3721231 5.63001564,61.3231351 5.6312496,61.2601198 C5.6324976,61.1971044 5.88552181,61.1375363 6.19356097,61.1277462 C6.50159858,61.117979 6.76699047,61.0443951 6.78332211,60.9642786 C6.79965375,60.8841621 6.88238211,60.8218678 6.96716343,60.8258465 C7.05194475,60.8298108 7.1453404,60.7653965 7.17470896,60.6826773 C7.20407908,60.5999582 7.26544792,60.5340299 7.31108728,60.5361701 C7.35672664,60.538181 7.3750582,60.5936067 7.35182356,60.6590494 C7.32858736,60.7244922 7.41902212,60.7804867 7.55278589,60.7834858 C7.69642289,60.7867032 7.79713025,60.7069113 7.79876669,60.5885794 C7.80032669,60.478383 7.83829039,60.4324717 7.88321215,60.4865558 C7.92813235,60.5406371 7.96579075,60.5194223 7.96689679,60.4394121 C7.97015719,60.2036762 7.75415849,60.1074468 7.37216752,60.1744581 C7.17561688,60.2089332 6.84785151,60.1510744 6.64379882,60.0457471 C6.43974614,59.9404803 6.21705925,59.8317231 6.14893873,59.8040677 C6.08081665,59.7764036 5.95989325,59.6990105 5.88021624,59.6320682 C5.80053924,59.5651258 5.66076792,59.542558 5.56961556,59.5819138 C5.35763495,59.6734435 5.28817439,59.4621169 5.45208359,59.2243328 C5.52147552,59.1236651 5.57799276,59.1013184 5.57767764,59.1746726 C5.57736564,59.2480267 5.60548932,59.2405721 5.64018216,59.1580971 C5.74688616,58.9044529 6.08217697,58.6276835 6.07986037,58.7951671 C6.07861237,58.879923 6.11727385,58.9511226 6.16560577,58.9533892 C6.21393769,58.9556873 6.23599609,58.9023127 6.21462253,58.8348447 C6.15949057,58.6608142 6.82576035,58.6646234 6.99263511,58.8392974 C7.08176572,58.9325938 7.16579824,58.9239125 7.22804536,58.8149657 C7.33982404,58.6193555 7.67430521,58.5545103 7.60798337,58.7413099 C7.53069785,58.958988 7.79759513,58.8867485 7.90472923,58.6609895 C7.98101167,58.5002452 8.05982911,58.4843161 8.21177936,58.5989393 C8.47443032,58.7970688 8.56368261,58.7967097 8.40753752,58.5983648 C8.3158142,58.4817278 8.35788428,58.4492032 8.57540133,58.4685795 C8.73504393,58.4827993 9.14679658,58.4297378 9.49040687,58.3506641 C9.83401404,58.2715876 10.2151345,58.2023414 10.3373356,58.1967798 C10.7006783,58.1802619 10.6032891,57.6651223 10.1184442,57.0389877 C9.84143964,56.6812601 9.71044487,56.4150019 9.74208636,56.2740073 C9.77299464,56.1362819 9.82407996,56.1093906 9.88274844,56.1999695 C9.9334188,56.2781957 10.0503268,56.2902725 10.1425399,56.2268004 C10.2347562,56.1633312 10.4494403,56.1130993 10.619616,56.1151705 C10.8591135,56.1181006 10.9628519,56.028961 11.0787209,55.7207357 C11.2669349,55.2200659 11.2940664,54.9364795 11.190158,54.55596 C11.1450428,54.3907516 11.141876,54.2962084 11.1831224,54.3458629 C11.2243656,54.3955174 11.3110112,54.1842625 11.37567,53.8764049 C11.4403274,53.5685501 11.5353438,53.2680953 11.5868145,53.2087226 C11.6382851,53.1493584 11.5310632,53.091669 11.3485432,53.0805316 C11.1034282,53.0655936 11.0497579,53.0230921 11.1432066,52.9179947 C11.2391544,52.8100907 11.2042978,52.7720764 10.9989456,52.7606632 C10.8500171,52.7524473 10.6641883,52.6803428 10.5859918,52.6005566 C10.5077937,52.5207734 10.100785,52.1851196 9.68152559,51.8546653 C8.84071521,51.1919499 8.35167392,51.0269511 6.56407658,50.8028669 C5.19417191,50.6311431 5.04027634,50.5927238 4.82558134,50.3688808 C4.60702689,50.1410132 3.47734194,49.7723464 2.75984177,49.6947378 C2.38375228,49.6540605 2.04940371,49.5145396 1.80994526,49.2983639 C1.60670534,49.1148823 1.25457277,48.9097003 1.02742896,48.8424018 C0.57571691,48.708566 -0.0025189449,48.3010346 8.25516423e-06,48.1182912 C0.000944255188,48.0548794 0.218110301,47.8833194 0.482728427,47.7370506 C0.889365838,47.5122798 1.23366253,47.4820447 2.7065896,47.5417766 C3.88317283,47.5894891 4.55289489,47.5539855 4.7681281,47.4324908 C5.07894406,47.2570441 5.37667007,47.2975605 6.13550401,47.6185722 C6.33110306,47.7013172 6.88742559,47.8001493 7.37177284,47.8381981 C7.85612119,47.8762469 8.32349096,47.9817838 8.41037516,48.0727246 C8.5032716,48.1699652 8.69358225,48.1960865 8.87238633,48.1361478 C9.03961054,48.0800901 9.20921218,48.0504038 9.24927922,48.0701736 C9.39730295,48.1432204 11.9240054,48.214015 12.2055292,48.1530019 C12.6827972,48.0495707 13.2817264,47.9863313 14.1070725,47.9522209 C14.53511,47.9345251 14.9267808,47.8475113 14.9774527,47.7588342 C15.0675053,47.601247 14.9155004,47.5138339 14.6423912,47.56616 C14.5851533,47.5771337 14.5394172,47.5069624 14.5407557,47.4102447 C14.5421597,47.3135241 14.4893864,47.2695432 14.4236278,47.3125071 C14.3578691,47.3554682 14.2593722,47.2861358 14.2047441,47.1584562 C14.124986,46.9720214 14.0914304,46.9647076 14.0343906,47.1213267 C13.9764974,47.280287 13.9636383,47.2791178 13.9648739,47.1150067 C13.9658099,46.987735 13.9084736,46.9445269 13.8089909,46.997574 C13.7041823,47.0534593 13.6341071,46.990737 13.599252,46.8098264 C13.5704622,46.6604034 13.587396,46.51539 13.6368761,46.4875737 C13.764821,46.4156501 13.9787267,46.0216864 13.9810495,45.8536857 C13.9842943,45.619389 13.6597753,45.0669935 13.5734012,45.1597786 C13.5292657,45.2071952 13.515753,45.1453002 13.5433743,45.0222025 C13.5815491,44.8520904 13.5485691,44.8178594 13.4058416,44.8794815 C13.2567352,44.9438614 13.2294727,44.90982 13.2733929,44.7141036 C13.3552212,44.34947 13.1809536,44.2229596 13.0385521,44.5436237 C12.9605115,44.7193606 12.9319152,44.737605 12.9603852,44.5934936 C13.0105579,44.3395449 12.6281317,43.9120511 12.4867021,44.0639849 C12.4379723,44.1163339 12.4277325,44.0811636 12.4628809,43.9821649 C12.4967875,43.8866709 12.4849845,43.8066779 12.4366526,43.8044114 C12.3883191,43.8021132 12.3473473,43.903433 12.3456032,44.0294982 C12.341126,44.3530092 12.1769329,44.3086606 12.1743386,43.9832364 C12.172529,43.755952 12.1614998,43.7612032 12.1012151,44.0180333 C12.0621699,44.1843966 12.0411177,44.3583466 12.0544339,44.4045855 C12.0677563,44.4508243 12.0064108,44.4952763 11.9181257,44.5033658 C11.7239962,44.5211478 11.7143226,44.3998915 11.8918117,44.173443 C11.9949401,44.041868 11.9217871,44.0108631 11.5551824,44.0307823 C11.2784898,44.0458065 11.1072752,43.9985306 11.1368403,43.9152685 C11.1646161,43.8370337 11.1124934,43.8064251 11.0197061,43.8464906 C10.9224963,43.8884635 10.8535661,43.8434742 10.8550091,43.7390289 C10.8564131,43.6402227 10.81312,43.6070546 10.758885,43.6653157 C10.689607,43.7397414 10.6803999,43.6851373 10.7279299,43.4817565 C10.7651391,43.3225376 10.8054136,43.0989848 10.8174271,42.9849763 C10.8548032,42.6302564 11.0674733,42.5361959 11.3252352,42.7603836 C11.460612,42.8781266 11.524622,42.9778578 11.4674776,42.9820059 C11.2635653,42.996829 11.3634818,43.2953591 11.5756823,43.3053129 C11.7317853,43.3126383 11.7798614,43.2524008 11.7483696,43.0889505 C11.7243675,42.9643734 11.7428472,42.8215001 11.7894273,42.7714549 C11.8435406,42.7133203 11.8364348,42.5904582 11.7697479,42.431199 C11.6815143,42.2204843 11.6855937,42.1969426 11.7961088,42.2789953 C11.868017,42.3323813 11.9804275,42.309644 12.0459116,42.2284675 C12.1399484,42.1118937 12.1339829,42.0976595 12.0175321,42.1607553 C11.8932359,42.2281027 11.8796748,42.175722 11.9311408,41.8270922 C11.9647183,41.5996383 12.0228875,41.3781165 12.0604055,41.3348193 C12.1825192,41.1938994 12.0543839,40.5897926 11.9208807,40.6770162 C11.8342944,40.7335852 11.8064562,40.6717304 11.82812,40.4709523 C11.8507665,40.2610879 11.814392,40.1910344 11.6926496,40.2100315 C11.601115,40.2243088 11.5736606,40.1999484 11.6316411,40.1558842 C11.6896216,40.11182 11.718335,40.0166649 11.6954513,39.9444311 C11.6725677,39.8721973 11.7302549,39.7197924 11.8236428,39.6057552 C11.9170306,39.4917151 11.9694107,39.3518524 11.9400437,39.2949444 C11.9106736,39.2380364 11.9582318,39.1937797 12.0457244,39.196595 C12.1763104,39.2007891 12.183254,39.1751934 12.0844919,39.0535809 C12.0055435,38.9563748 11.9427347,38.9658547 11.9017988,39.0811588 C11.8674881,39.177799 11.8162936,39.2120615 11.7880326,39.1572994 C11.7362219,39.0569018 11.8991296,38.4164324 12.0112078,38.2798992 C12.1028204,38.1682951 12.2173369,37.4727018 12.1283623,37.5682877 C12.0863156,37.613455 12.0101065,37.5198426 11.9590071,37.3602618 C11.8763255,37.1020557 11.8908757,37.0743687 12.091175,37.1087692 C12.2330351,37.1331296 12.3095609,37.0764456 12.2981511,36.955445 C12.2881983,36.8498564 12.3079323,36.7729229 12.3420323,36.7844797 C12.5125076,36.8422754 12.6122789,36.7565571 12.6151384,36.5498268 C12.6168856,36.4237645 12.6578543,36.3224734 12.7061878,36.3247428 C12.7545198,36.327041 12.7738279,36.2649823 12.7490941,36.1869083 C12.7243587,36.1088343 12.7515121,36.0123291 12.8094349,35.9724533 C12.8729674,35.9287165 12.8572052,35.8924661 12.7696986,35.8810787 C12.6899217,35.8707083 12.6253798,35.8094395 12.6262721,35.7449505 C12.6272081,35.6804615 12.4972165,35.6328811 12.337499,35.6392125 C12.1777815,35.6455324 12.0686579,35.5900148 12.0950048,35.5158103 C12.1213501,35.4416058 12.0638157,35.3771829 11.9671503,35.3726469 C11.8704864,35.368108 11.8154262,35.2967217 11.8447932,35.2140025 C11.8741634,35.1312834 11.8546524,35.0615603 11.8014362,35.0590668 C11.745819,35.0564814 11.7283798,34.9489278 11.7604191,34.806158 C11.8070225,34.5984854 11.7950121,34.5884626 11.6871147,34.7449898 C11.5812656,34.8985437 11.5586456,34.8908363 11.561257,34.7020947 C11.5630042,34.5755412 11.6396189,34.4395365 11.7315045,34.3998647 C11.8320668,34.3564439 11.9003495,34.1992187 11.9030374,34.0049013 C11.906797,33.7330298 11.8712898,33.6944266 11.678076,33.760329 C11.489809,33.8245451 11.4746177,33.809791 11.5933992,33.6780867 C11.7278884,33.5289624 11.7258932,33.4902673 11.5652194,33.1319451 C11.4701109,32.9198457 11.3367948,32.7437009 11.2689582,32.7405208 C11.0192553,32.7288002 11.2448391,32.5784493 11.5805979,32.5328051 C11.7827739,32.5053135 11.9063212,32.5442384 11.8772147,32.6262078 C11.849779,32.7034832 11.8646723,32.7684635 11.9103101,32.7706036 C11.9559495,32.7726145 12.0131469,32.7185706 12.0374143,32.6502178 C12.0616832,32.5818678 12.2045246,32.5445544 12.3548384,32.5673033 C12.5051537,32.590055 12.6723561,32.5481999 12.7263992,32.4742999 C12.7867681,32.3917445 12.844591,32.4028503 12.8763495,32.5031015 C12.9113466,32.613568 12.978684,32.6193708 13.0848451,32.5210558 C13.1710881,32.441195 13.3283892,32.3857636 13.4344052,32.3978748 C13.7289582,32.4315255 14.7480204,32.311944 14.8193046,32.2353667 C14.8748344,32.1757124 15.7835515,32.0056347 16.061673,32.0028425 C16.2073365,32.0014061 16.201421,31.2826732 16.0539978,31.0705164 C15.9869334,30.9739997 15.9263992,30.7039955 15.9194806,30.4705032 C15.911665,30.2067959 15.8678867,30.0714634 15.8039127,30.1132639 C15.7436093,30.15266 15.7199815,30.0956256 15.7469056,29.9756534 C15.7769465,29.8417946 15.7070226,29.7317849 15.5452194,29.6583417 C15.2731445,29.5348476 15.0830569,29.1922792 15.1624781,28.9685856 C15.1910947,28.8879866 15.1403089,28.8571109 15.0460553,28.8978083 C14.9269618,28.9492295 14.8799137,28.8948207 14.8824893,28.708656 C14.8844705,28.5649209 14.811918,28.4078536 14.7212492,28.3596154 C14.5371412,28.2616681 14.5100096,28.0735557 14.6571878,27.9154457 C14.7182072,27.8498937 14.7310133,27.877055 14.691525,27.9882741 C14.6568914,28.0858221 14.6594717,28.1572314 14.6972658,28.1469673 C14.8750543,28.0986458 14.9726339,28.195105 14.9695747,28.4161557 C14.9652223,28.731175 15.166141,28.6182868 15.2062642,28.2831759 C15.2232183,28.1415724 15.2061082,28.0342027 15.1680473,28.0445731 C14.9382421,28.1073615 14.809514,27.981914 14.8134265,27.6989999 C14.8158133,27.5259547 14.8545325,27.4286222 14.8994527,27.4827035 C14.9443745,27.5367848 14.9830843,27.4394522 14.9854789,27.2664071 C14.9878657,27.0933591 15.041848,26.9542174 15.1054227,26.9571993 C15.1690005,26.9601869 15.2447307,26.856951 15.2737139,26.7277948 C15.3026971,26.5986415 15.2917881,26.5301651 15.2494699,26.5756255 C15.2071518,26.6210858 15.1575922,26.5707132 15.1393355,26.4637198 C15.1210788,26.3567149 15.1142928,26.3899577 15.1242503,26.5375939 C15.1342187,26.685233 15.1085193,26.8044382 15.0671527,26.8024991 C15.0257846,26.8004882 14.993073,26.7170653 14.9944583,26.6169606 C14.9958623,26.5168531 14.9423075,26.5655136 14.8754896,26.7250916 C14.7863122,26.9380643 14.7790301,27.0453593 14.8481038,27.1285237 C14.9021203,27.1935556 14.8691544,27.228229 14.7707044,27.2099185 C14.6184499,27.1815938 14.5166116,26.7766736 14.6634762,26.7835652 C14.6958056,26.7850015 14.7475134,26.5810836 14.7783842,26.3302402 C14.8229675,25.9679852 14.8776174,25.8761798 15.0440398,25.8839878 C15.159277,25.8893884 15.254515,25.8250545 15.2556772,25.7410111 C15.2567692,25.6569676 15.3324729,25.5917087 15.4237516,25.5959919 C15.599509,25.6042365 15.643788,25.8289844 15.500073,25.9833714 C15.3466455,26.1481949 15.4880142,26.3274652 15.7488743,26.2988848 C16.0885066,26.2616777 16.1717045,26.0937459 15.8670974,26.060259 C15.6298307,26.0341749 15.6292129,26.0318193 15.834236,25.9346678 L16.0431917,25.8356634 L15.8590727,25.6398866 C15.646933,25.4143143 15.6189216,25.146433 15.8084008,25.1553182 C15.879554,25.1586505 15.9137398,25.2290688 15.8843697,25.3117879 C15.8550011,25.39451 15.8705169,25.4640434 15.9188488,25.46631 C15.9671807,25.4686081 16.0086284,25.332908 16.0109543,25.1648211 C16.0135283,24.9796876 16.0705011,24.8618068 16.1555117,24.8657941 C16.2775973,24.8715394 16.2752916,24.8430711 16.1377792,24.6469783 C16.0115487,24.4669697 15.9708155,24.4608423 15.9355049,24.6165479 C15.9086511,24.7349631 15.8308336,24.7685104 15.7373225,24.7019846 C15.5926278,24.5990503 15.5920366,24.577261 15.7274945,24.3402036 C15.8067753,24.201467 15.9249843,24.0904576 15.9901829,24.0935142 C16.0972847,24.0985414 16.147796,23.9153068 16.1254224,23.6029189 C16.1208828,23.5396335 16.175397,23.4905852 16.2465486,23.4939232 C16.3177002,23.4972556 16.3553181,23.4349728 16.3301428,23.3555055 C16.2705602,23.1674304 16.4305288,22.9966777 16.5413309,23.1300768 C16.5998762,23.2005612 16.5952835,23.2999563 16.5268229,23.4442314 C16.454818,23.5959612 16.4528477,23.6565061 16.5198029,23.6596459 C16.6171126,23.6642135 16.6460288,23.4804934 16.6246225,22.9936614 C16.6078915,22.6131447 16.7673219,22.4532306 17.1484486,22.4682404 C17.3317517,22.4754509 17.452087,22.4109044 17.4412404,22.3111703 C17.4294624,22.2029273 17.6024539,22.1480158 17.9207906,22.1589435 C18.194672,22.1683372 18.4664615,22.1107226 18.5247649,22.0308876 C18.5830683,21.9510584 18.7388921,21.9308605 18.8710381,21.9860075 C19.0420828,22.057391 19.1435249,22.0125799 19.223141,21.8304312 C19.2846518,21.6897153 19.3010521,21.6249821 19.2595873,21.6865783 C19.2181241,21.7481775 19.0828144,21.5010054 18.958902,21.1373083 C18.8349881,20.7736142 18.732585,20.5382632 18.7313354,20.6143148 C18.7300874,20.6903636 18.6561075,20.6245991 18.5669333,20.4682241 C18.4777605,20.3118291 18.4069755,20.1086236 18.4096369,20.0166601 C18.4122889,19.9246967 18.4508724,19.9715761 18.4953558,20.1208325 C18.5398392,20.2700889 18.6378618,20.3950998 18.7131801,20.3986332 C18.8143929,20.4033732 18.8264533,20.3591883 18.7594029,20.2292622 C18.7095063,20.1325789 18.6910235,19.9539234 18.7183266,19.8322563 C18.7589225,19.6513544 18.7802414,19.6487833 18.8353125,19.8181514 C18.8848831,19.970608 18.9034097,19.9445987 18.9055125,19.7195865 C18.9091005,19.3373578 18.7206026,18.836415 18.6282381,18.9826609 C18.5903489,19.0426455 18.587792,19.0059297 18.6225597,18.9010707 C18.6573228,18.7962088 18.7199771,18.7516017 18.7617944,18.8019485 C18.8036102,18.8522924 18.8387757,18.8247289 18.8399379,18.7406769 C18.8410299,18.6566334 18.8069034,18.5455551 18.7639441,18.493838 C18.6589998,18.3674884 18.7631641,17.9253152 18.9542501,17.6854254 C19.0394198,17.5785441 19.0861216,17.4185496 19.0580291,17.3298753 C19.0247824,17.2249245 19.0752156,17.2102565 19.2025319,17.2878508 C19.3622946,17.3852177 19.3796215,17.3694294 19.2971552,17.2016355 C19.1744831,16.9520332 19.1707531,16.4899867 19.2908684,16.4224641 C19.3733628,16.3760931 19.3959719,16.1128569 19.3702506,15.4982849 C19.3635582,15.3384542 19.2892258,15.2259567 19.1861862,15.2197258 C19.0868501,15.2136932 19.0518671,15.1633119 19.103929,15.1011929 C19.2346507,14.9452144 19.3191372,14.4877441 19.235763,14.3873636 C19.1966413,14.3402601 19.1466901,14.3873119 19.1247596,14.4919382 C19.1028307,14.5965559 19.0636388,14.6447567 19.037668,14.5990551 C19.0116971,14.5533506 19.0248448,14.4190925 19.0668743,14.3006945 C19.1313428,14.1191146 19.1694458,14.1312862 19.3103856,14.3784727 C19.47356,14.664653 19.4777174,14.6647047 19.4880478,14.3807708 C19.4939134,14.2196243 19.5161059,14.176014 19.5378367,14.2829557 C19.5594022,14.3890872 19.6152736,14.4777155 19.6619909,14.4799102 C19.7087098,14.4822084 19.7270288,14.3805726 19.7026991,14.2542948 C19.6783693,14.1280171 19.6849806,14.036226 19.7173943,14.0503223 C19.749808,14.0644272 19.8832597,14.0005472 20.0139565,13.908397 C20.1446533,13.8162497 20.2852546,13.7813896 20.3264058,13.8309349 C20.3675586,13.8804859 20.4022905,13.8441493 20.4035899,13.7501807 C20.4048379,13.6562178 20.4401673,13.6205304 20.4819846,13.6708743 C20.5238004,13.7212211 20.5809074,13.697935 20.608886,13.6191256 C20.6368661,13.540322 20.7243603,13.4794554 20.8033212,13.4838679 C21.0324884,13.4966801 21.1753454,13.419172 21.557926,13.0744807 C21.7554938,12.896483 21.9688909,12.7532736 22.0321411,12.7562382 C22.0953897,12.7591971 22.1634588,12.6786009 22.1834002,12.5771144 C22.2221803,12.3797893 22.9974317,12.3197989 22.9947407,12.5143347 C22.9939607,12.5763359 23.0965962,12.579269 23.2229936,12.5208269 C23.4720835,12.4056924 23.9996303,12.4543385 24.3814496,12.6276451 C24.5795338,12.7175574 24.6405594,12.6727176 24.7345541,12.3681951 C24.7970524,12.1657192 24.8269389,11.9329709 24.8009649,11.8509843 C24.7339987,11.6395974 24.1740929,11.4689969 23.2595148,11.3813137 C22.8262372,11.3397746 22.3903764,11.2191877 22.2909357,11.1133434 C22.1914951,11.0074991 22.0804917,10.9285863 22.0442607,10.9379828 C22.0080281,10.9473765 21.8428226,10.9405683 21.6771381,10.922815 C21.4503812,10.8985695 21.3662036,10.8145031 21.336718,10.5829326 C21.3048987,10.3330315 21.3389332,10.2763131 21.5180399,10.2807657 C21.7286493,10.285994 21.7315369,10.2759683 21.582443,10.057009 C21.4428495,9.85200511 21.5066722,9.8353119 22.1862457,9.89906553 C22.6041884,9.93827489 22.945727,10.0124794 22.9452231,10.0639637 C22.9447551,10.115451 23.0473002,10.1403428 23.1731813,10.1192831 C23.7367266,10.0250043 24.5959902,9.93471562 24.9135516,9.93641626 C25.1044005,9.93756533 25.2430658,9.88308762 25.2216984,9.81564258 C25.2003327,9.74819755 25.2505413,9.68600091 25.3332759,9.67743168 C25.6604141,9.64354254 25.7389695,9.61915052 25.8837999,9.50648071 C25.9665563,9.44210083 26.1093353,9.1346913 26.2010899,8.82335193 C26.3704481,8.24868159 26.6418647,7.9227748 26.6932012,8.23244801 C26.7128307,8.35085746 26.7589739,8.34711435 26.8465945,8.22000926 C26.9260359,8.10476265 26.9916214,8.0942486 27.0257433,8.19128235 C27.0825414,8.35281089 28.4214176,8.41696383 28.5097464,8.26242742 C28.5380932,8.21281892 28.6044306,8.24165786 28.6571633,8.32651715 C28.7589268,8.4902749 29.2600253,8.48824391 29.4134263,8.32344337 C29.4636771,8.26946264 29.632767,8.29687098 29.789182,8.38435017 C29.9455985,8.4718351 30.7622086,8.61057745 31.6038739,8.69266747 C32.4455376,8.77476036 33.6191365,8.89873421 34.2118695,8.96816428 C37.4064906,9.34237824 38.3821099,9.42743575 40.3697185,9.50502426 C41.9311521,9.56597414 42.5475128,9.63865897 42.5458109,9.76164174 C42.5440949,9.88573912 42.5741436,9.88867501 42.6544025,9.77224197 C42.7664744,9.60965915 43.2666011,9.58996685 44.7056668,9.69147914 C45.1390972,9.72205319 45.5311408,9.74307266 45.5768785,9.73818622 C45.622613,9.73330264 46.0716949,9.68297597 46.5748323,9.62635236 C47.0779713,9.56973162 47.551344,9.56187194 47.62677,9.6088864 C47.7021976,9.6559066 47.7843144,9.63689513 47.8092526,9.56666071 C47.8341923,9.49642055 48.165087,9.43837208 48.5445726,9.43766827 C48.9240598,9.43709373 49.4490419,9.37697406 49.7112015,9.30434956 C49.9733611,9.2317308 50.6655565,9.16396115 51.249413,9.15374873 C51.8332727,9.14349323 52.572722,9.12132467 52.8926375,9.10443612 C53.2125514,9.0875447 53.5432355,9.14332086 53.6274911,9.2283755 C53.7117452,9.31343013 53.7608274,9.32035044 53.7365585,9.24374439 C53.7115658,9.16484881 54.0407336,9.12649551 54.4958277,9.155277 C54.937693,9.18322829 55.4310009,9.13005478 55.5920678,9.03712322 C55.8131806,8.90954989 55.8992771,8.91215542 55.9435436,9.04778091 C55.9836372,9.17060568 56.0033057,9.17421091 56.0057673,9.05915676 C56.0079513,8.95560775 56.2408079,8.8886051 56.6114467,8.88483613 C57.4349629,8.8764766 59.9415367,8.97819572 60.4496162,9.04060205 C60.6775712,9.06861079 61.2007422,9.06447412 61.6122187,9.0314669 C62.6049216,8.95178132 64.1455028,8.97756085 64.1441627,9.07383909 C64.1425091,9.19271679 64.5413403,9.15723905 65.2077349,8.97923276 C65.5420335,8.88993803 65.9159546,8.87050715 66.038672,8.93606483 C66.3260693,9.08958718 66.8833309,9.15375735 66.8849128,9.03350938 C66.8855368,8.98253635 66.9888166,8.94583772 67.1143217,8.95195368 C69.4355206,9.06508887 73.8168556,8.98384055 73.9647733,8.82493478 C74.0004442,8.78661883 74.0287801,8.81617307 74.027752,8.89062748 C74.02666,8.96507614 74.1378584,9.00106808 74.2747312,8.97061181 C74.4115978,8.94015267 74.5886812,8.96917547 74.6682428,9.03521289 C74.8513681,9.18708344 75.1826013,9.24896982 75.1429836,9.12391296 C75.1265459,9.0720178 75.7552696,9.07408039 76.5401524,9.12850927 C77.3250336,9.18292953 77.9670407,9.2392314 77.9668426,9.25362932 C77.9668426,9.26802151 78.1996929,9.30434668 78.4847361,9.33434332 C78.7697637,9.36433996 79.0035734,9.3445701 79.004305,9.29036817 C79.005085,9.23618634 79.1357694,9.25235672 79.2948238,9.32630266 C79.4538939,9.40025147 79.600913,9.4131872 79.6215549,9.35505542 C79.6421906,9.2969179 79.9973574,9.26913611 80.4107948,9.29331842 C80.8589828,9.31951736 81.1638677,9.27559392 81.1658863,9.18453249 C81.1679455,9.09446788 81.1933392,9.10118998 81.2279291,9.20090683 C81.3006423,9.41052421 81.9276968,9.42918521 82.0138852,9.22431926 C82.0559397,9.12435249 82.0766658,9.12532633 82.0760793,9.2272494 C82.0760793,9.31133307 82.2153452,9.37864309 82.3866472,9.37684766 C82.5579586,9.37512404 82.7837624,9.43726035 82.8884384,9.51508442 C83.0022544,9.59972251 83.1409025,9.59902732 83.2334199,9.5133608 C83.3825263,9.3752964 83.730907,9.33283229 85.523216,9.23425877 C85.9802383,9.20912272 86.7284518,9.1442114 87.1858875,9.09000659 C87.6433216,9.03580179 88.6711776,9.01322244 89.4700146,9.0398293 C90.2688532,9.06645914 91.0725199,9.0435638 91.2559494,8.98902863 C91.4393789,8.93447623 92.4484805,8.91738085 93.4983949,8.95104017 C95.964209,9.03008513 97.8198852,8.99345258 98.5590335,8.85113659 C98.8827803,8.78880495 99.5785028,8.65476231 100.105103,8.5532644 C100.631685,8.45176935 101.51173,8.31055361 102.060739,8.23945163 C102.609748,8.16834679 103.227449,8.08362251 103.433402,8.05116972 C104.108139,7.9448543 104.794639,8.00556576 105.349583,8.22063264 C105.699525,8.3562495 106.763668,8.47144728 108.317689,8.54192876 C109.65011,8.6023673 110.766043,8.68163346 110.797541,8.71808791 C110.829037,8.75454811 112.23581,8.89405172 113.923695,9.0281001 C115.61158,9.16215135 117.290865,9.31820167 117.655431,9.37488274 C119.702338,9.69312231 121.256327,9.82413713 124.663625,9.96575218 C125.142876,9.98565993 125.665384,10.0296897 125.824752,10.0635731 C126.169437,10.1368554 127.764947,10.3445337 129.264467,10.5113049 C132.505314,10.8717357 133.714497,10.9878298 135.898383,11.1482351 C137.221427,11.2454096 138.434099,11.3682746 138.593207,11.4212671 C138.752314,11.4742597 139.180881,11.556815 139.54556,11.6047229 C140.220458,11.6933799 140.990983,11.8973151 141.090319,12.01357 C141.120513,12.0489156 141.399691,12.1256366 141.710708,12.1840585 C142.021733,12.2424833 142.499346,12.3661785 142.772071,12.4589319 C143.044798,12.5516911 143.37958,12.6610889 143.516012,12.702042 C143.652451,12.7429922 144.067032,12.9356349 144.437302,13.1301362 C144.807575,13.3246346 145.188319,13.4874242 145.283398,13.4918855 C145.378491,13.4963382 145.455485,13.5572967 145.45451,13.62733 C145.453574,13.6973662 145.499421,13.7576324 145.556451,13.7612578 C146.116786,13.7968533 147.455896,14.0948117 147.665939,14.230621 C147.812281,14.3252446 148.008119,14.6104827 148.10114,14.8644831 C148.284821,15.3660751 148.782071,15.8800052 149.240664,16.0422807 C149.814448,16.2452995 150.807684,16.4622221 151.015882,16.4299905 C151.132866,16.4118926 151.227558,16.4712338 151.22631,16.5618844 C151.22475,16.652535 151.249897,16.6814142 151.281534,16.6260661 C151.313171,16.5707122 151.415023,16.6637385 151.507875,16.832782 C151.600741,17.0018313 151.925658,17.3941374 152.229921,17.7045777 C152.673179,18.1568369 152.899972,18.2867113 153.371076,18.3580603 C153.993282,18.4523018 154.103247,18.5884214 154.03353,19.1780584 C153.989117,19.5538437 153.654653,19.8478407 153.29097,19.8307798 C153.186372,19.8258675 153.076751,19.8895378 153.047392,19.9722598 C153.018033,20.0549789 152.867337,20.1167188 152.712553,20.1094566 C152.275551,20.0889456 151.588573,20.3681051 151.588215,20.5663237 C151.588215,20.8922908 152.215179,21.3200029 152.832907,21.4146609 C153.167543,21.4659384 153.94486,21.5721476 154.560296,21.6506841 C155.803304,21.8093055 155.933439,21.8569979 155.994996,22.1764354 C156.085742,22.6474102 154.924134,24.1802896 153.977589,24.8386529 C153.672188,25.0510769 153.51717,25.2683327 153.410575,25.6332852 C153.22765,26.2596065 153.307069,26.5653096 153.799468,27.1303938 C153.990537,27.3496519 154.145398,27.6342006 154.14362,27.7627277 C154.141904,27.8912518 154.194975,28.1021792 154.261696,28.2314531 C154.450877,28.5980459 154.399257,28.9658882 154.118192,29.2541053 C153.976544,29.39936 153.696664,29.7893221 153.496235,30.1206784 C153.19113,30.6250913 153.065472,30.7291947 152.724113,30.7602916 C152.423766,30.7876396 152.278655,30.8846964 152.173012,31.1288435 C152.094138,31.3111215 152.046823,31.5145942 152.067852,31.5810051 C152.088912,31.6474188 152.067868,31.6999603 152.021146,31.6977685 C151.974424,31.6954703 151.89034,31.8464475 151.834289,32.0330373 C151.778269,32.2196301 151.76125,32.3253164 151.796506,32.2679028 C151.88424,32.1249922 152.10732,32.5794519 152.041051,32.7661079 C152.01021,32.8529895 152.051191,32.8864621 152.138458,32.8457819 C152.221278,32.807196 152.138458,32.905465 151.952911,33.0641783 C151.768051,33.2228801 151.497828,33.3489539 151.352452,33.3443403 C151.20706,33.3397153 150.991405,33.3985164 150.873204,33.4749874 C150.715161,33.577238 150.658314,33.5644545 150.658345,33.426686 C150.658361,33.3236455 150.619517,33.3553284 150.571968,33.4970899 C150.408683,33.9840111 150.558552,34.5251944 150.96916,34.9330562 C151.182022,35.1443972 151.411997,35.483257 151.480231,35.6860776 C151.54845,35.8888982 151.750174,36.1428584 151.928497,36.2504378 C152.593104,36.6513448 152.686018,37.4482494 152.100753,37.7278455 C151.736992,37.9016232 151.557841,38.3875246 151.660021,38.923155 C151.713202,39.2018577 151.710285,39.3284113 151.650661,39.325619 C151.497376,39.3184373 151.345619,39.6923582 151.349223,40.0684251 C151.352811,40.4403323 151.346259,40.4463477 150.643089,40.7111236 C150.528319,40.7543433 150.319903,40.9646099 150.17994,41.1783783 C150.039961,41.3921467 149.821405,41.6606658 149.694234,41.7750908 C149.567047,41.8895129 149.461638,42.0820924 149.459969,42.2030442 C149.456069,42.4868 149.154661,42.7665541 148.795799,42.8195667 C148.403443,42.8775233 148.241375,43.0578364 148.21927,43.4610185 C148.200846,43.7970918 148.519539,44.5304007 148.687426,44.5382748 C148.790027,44.5431009 149.249073,45.4434654 149.246436,45.6347235 C149.242848,45.8962073 148.941253,46.0617145 148.361058,46.1206621 C148.044676,46.1528047 147.598087,46.243461 147.368658,46.3221239 C146.988735,46.4523775 145.632891,46.812182 145.323847,46.8647609 C145.19459,46.886737 145.130644,47.4295233 145.25661,47.4354324 C145.294072,47.4371561 145.285601,47.5653585 145.237795,47.7202569 C145.189982,47.8751495 145.176263,48.0511104 145.207318,48.1112761 C145.311355,48.3128815 145.24686,50.2524822 145.128969,50.4675779 C145.067422,50.5798627 144.84503,50.6849975 144.634758,50.7012109 C144.295413,50.7273812 144.068328,50.9568603 144.142665,51.1984939 C144.157048,51.2452325 144.115501,51.3696919 144.050329,51.4750765 C143.985172,51.5804555 143.932552,51.6158298 143.933405,51.5536877 C143.934185,51.4915428 143.889926,51.5195171 143.834885,51.6158499 C143.761829,51.7436904 143.705765,51.7442936 143.627347,51.618148 C143.548882,51.4918961 143.451977,51.4933382 143.268249,51.6234912 C142.844711,51.9235208 142.976153,52.3899338 143.545202,52.6062359 C144.181671,52.8481654 144.323215,52.9581693 144.223216,53.133165 C144.196076,53.180665 143.605356,53.2150109 142.910493,53.2094896 C141.432752,53.1977403 141.262103,53.3145065 141.126145,54.4303315 C141.08217,54.7912133 140.954194,55.3403483 140.841718,55.6506248 C140.655912,56.1632278 140.508909,56.8322171 140.49522,57.2273903 C140.492318,57.3113533 140.364067,57.3962815 140.210237,57.4161232 C140.018384,57.4408858 139.916223,57.5435759 139.884901,57.7431762 C139.859794,57.9032138 139.806679,57.9949388 139.766865,57.9470051 C139.727049,57.8990714 139.693503,57.9297689 139.692322,58.0152344 C139.69123,58.1006941 139.518766,58.3449532 139.30927,58.5580322 C138.714909,59.1625412 138.626335,59.6742019 139.059464,60.0009332 C139.262058,60.1537517 139.270284,60.2690701 139.124332,60.9092465 C139.01731,61.3786269 139.286357,61.6947579 140.175618,62.1445122 C141.036466,62.5799001 141.27624,62.866632 141.024089,63.159138 C140.867511,63.3407869 139.743137,63.1097105 137.974815,62.5324806 C137.173699,62.270968 136.835252,62.3743677 136.649256,62.9374611 C136.463854,63.4987303 136.272624,63.6584261 135.720758,63.7128549 C135.263393,63.7579648 134.832938,64.1546059 134.827666,64.535812 C134.82439,64.7696088 135.18988,65.0075049 135.613334,65.0472572 C135.931709,65.0771447 136.305393,65.4973907 136.119031,65.6159639 C136.060615,65.6531307 135.956069,65.7828615 135.8867,65.9042499 C135.817338,66.0256412 135.761145,66.0839022 135.761838,66.0337192 C135.764428,65.8488931 135.253292,66.4048536 135.149706,66.6995745 C135.020655,67.0667504 134.584122,67.5606895 134.412173,67.5340912 C133.984764,67.4679762 133.415988,67.5447776 133.414267,67.6688176 C133.410913,67.9057542 133.839261,68.6045018 133.928808,68.5083098 C133.973886,68.459882 133.98468,68.4937165 133.952818,68.5835053 C133.920932,68.6732884 133.932814,68.7924419 133.979188,68.8482899 C134.025569,68.9041379 134.040111,69.0157936 134.011477,69.0964243 C133.982859,69.1770521 134.004395,69.3482415 134.059466,69.4768519 C134.215876,69.8424392 134.056564,69.9810982 133.421861,70.031896 C133.102511,70.057463 132.672239,70.1384355 132.465722,70.21185 C132.259189,70.2852674 131.565393,70.4691799 130.923942,70.6205449 C130.282475,70.7719041 129.547972,71.0171428 129.2917,71.1655173 C129.029769,71.3171695 128.600647,71.424726 128.311604,71.4111669 C128.028816,71.397895 127.525275,71.5140983 127.192602,71.6693787 C126.621473,71.9359702 126.425901,71.9396127 123.684567,71.7346893 C122.087806,71.615329 120.464401,71.4724931 120.076983,71.4172828 C119.067348,71.2734012 117.826386,71.049791 117.656042,70.9810561 C117.575772,70.9486665 116.605169,70.8327649 115.499107,70.7234935 C113.917611,70.5672507 113.248159,70.5645676 112.36458,70.7109398 C111.746636,70.8133053 110.61112,70.9092532 109.841189,70.9241624 C109.071275,70.9390717 108.304787,70.975417 108.13788,71.0049339 C107.561837,71.1068053 105.586205,71.2562685 104.426883,71.285682 C103.787291,71.3019127 102.628297,71.3502859 101.851345,71.3931781 C101.074384,71.4360702 99.5045729,71.4694538 98.3628853,71.4673624 C97.2211993,71.4653516 96.1747575,71.4809503 96.0374494,71.5021622 C95.9001491,71.5233914 94.9619027,71.5461632 93.9524423,71.5527561 C92.9429896,71.5593632 92.0085137,71.5838788 91.8758373,71.6072568 C91.6206166,71.6522287 90.9919319,71.7022164 88.7671035,71.8544461 C87.0208317,71.9739328 85.7094723,72.1328615 84.6267043,72.3562362 C84.1558791,72.4533677 83.6279845,72.5261473 83.4536202,72.5179687 C83.2792621,72.5097816 83.0274453,72.562596 82.8940388,72.6353182 C82.7606307,72.7080375 82.415412,72.7922533 82.1268885,72.8224682 C81.8383571,72.8526774 81.2385262,72.9966969 80.7939184,73.1425061 C80.3492965,73.2883182 79.7609753,73.4337826 79.4865198,73.4657671 C79.2120643,73.4977488 78.7065276,73.5775953 78.3631138,73.6432075 C78.0196861,73.7088169 77.514179,73.7865232 77.2397625,73.8158936 C76.9653444,73.8452669 76.3344508,73.9562044 75.8377795,74.0624279 C75.3411098,74.1686514 74.6296032,74.2820423 74.2566508,74.3144089 C73.8836985,74.3467726 73.3638254,74.4148123 73.1013819,74.4656101 C72.8389322,74.516405 72.1658842,74.5502769 71.6057241,74.5408804 C71.0455624,74.5314867 70.3063205,74.5734595 69.962966,74.6341624 C69.2851476,74.7539938 67.8427715,74.8304993 66.7222609,74.8060585 C66.3341938,74.797584 65.8478481,74.8407376 65.6414913,74.9019374 C65.4351361,74.9631315 64.0148684,74.9910799 62.4853398,74.9640392 C60.9558128,74.9370072 59.6237678,74.9415173 59.5252413,74.9740649 C59.4267133,75.0066183 58.6228172,75.0458305 57.7388041,75.0612023 C56.8547911,75.0765712 55.944503,75.1020577 55.7159412,75.1178259 C55.4873793,75.1335969 54.646324,75.1578568 53.8469301,75.1717377 C53.0475361,75.1856128 52.0754658,75.2269335 51.6867746,75.263546 C51.298085,75.3001613 50.9429791,75.3099715 50.8976517,75.2853497 C50.8523228,75.2607308 50.2727625,75.2895726 49.6097375,75.349405 C48.9467126,75.4092575 48.0303046,75.4785669 47.5732745,75.5034272 C47.1162428,75.528276 46.6112256,75.5706424 46.451012,75.5975538 C46.2908,75.6244709 45.6551468,75.6670097 45.0384507,75.6920969 C44.4217546,75.7171755 43.8980735,75.7581918 43.8747141,75.7832301 C43.8513546,75.80828 43.3648655,75.8512354 42.7936262,75.8787098 C42.222387,75.9061727 41.6799453,75.9527534 41.5882017,75.9821927 C41.4201772,76.0361131 35.5395559,75.9586654 32.9957465,75.8690259 C32.24258,75.8424823 30.9922431,75.7411625 30.217221,75.6438615 L30.2172772,75.6435082 Z M14.7978545,56.231356 C14.8263433,56.2267826 14.8035155,56.0114306 14.7471342,55.7528761 C14.6593735,55.3504304 14.587164,55.28641 14.2454313,55.3080409 C14.0258765,55.3219308 13.8364743,55.4406678 13.8245357,55.5718803 C13.7932756,55.9154466 14.1870638,56.3385789 14.4884701,56.2852808 C14.6301425,56.2602114 14.7693647,56.2359634 14.7978545,56.231356 L14.7978545,56.231356 Z M15.9466001,46.7387061 C15.9474345,46.611556 15.8816879,46.5015241 15.800319,46.494182 C15.71895,46.4872835 15.6505807,46.7306446 15.6483835,47.0359844 C15.6461585,47.3413142 15.7120163,47.4513461 15.7946646,47.2805084 C15.8773158,47.1096609 15.945685,46.8658464 15.9466001,46.7387061 Z M11.9972369,43.2002338 C11.9978851,43.0869201 11.9189056,42.8443967 11.8217587,42.6612993 C11.720476,42.4703967 11.6738494,42.5529132 11.7124553,42.8547445 C11.7771717,43.3607039 11.9948665,43.6248001 11.9972369,43.2002338 L11.9972369,43.2002338 Z M11.8562948,37.8203825 C11.7035609,37.431992 11.6848737,37.4752313 11.7652152,38.0311175 C11.8208085,38.4157897 11.9072856,38.6356823 11.9573786,38.5197773 C12.0074746,38.4038724 11.9619721,38.0891426 11.8562948,37.8203825 L11.8562948,37.8203825 Z M13.830981,35.8493682 C13.6782442,35.4609775 13.659554,35.5042167 13.7398985,36.0601032 C13.7954947,36.4447684 13.8819688,36.6646684 13.9320648,36.5487634 C13.9821578,36.4328584 13.9366583,36.1181284 13.830981,35.8493682 L13.830981,35.8493682 Z M11.9549313,34.1251962 C11.9032216,33.8521373 11.8294303,33.6262376 11.7909493,33.6232144 C11.7524654,33.6204576 11.7191625,33.8376826 11.7169403,34.1065237 C11.7148524,34.3753647 11.7885094,34.6012552 11.8809253,34.6085147 C11.9733381,34.6158661 12.006641,34.3982736 11.9549313,34.1251962 L11.9549313,34.1251962 Z M15.8912723,28.1065444 C15.8051603,27.9454731 15.7011042,27.9525688 15.6600386,28.1223126 C15.6189708,28.292076 15.6894268,28.4238581 15.8166043,28.4151659 C15.9571471,28.4053108 15.9864333,28.2845271 15.8912723,28.1065346 L15.8912723,28.1065444 Z M16.6757992,26.5917054 C16.4788967,26.453542 16.167229,26.0335393 16.1710795,25.9115425 C16.1723152,25.874419 16.261469,25.9063153 16.3693413,25.9824099 C16.6248733,26.1626787 16.7799941,26.041865 16.5696965,25.8263641 C16.3848198,25.6369156 16.0437819,25.7769405 16.0352975,26.0457795 C16.0326531,26.1296312 15.9843468,26.1738854 15.9279565,26.1441219 C15.8715638,26.1143584 15.8139106,26.1820335 15.7998384,26.2945115 C15.7827115,26.4315177 15.8583392,26.500747 16.0290053,26.5042564 C16.1691197,26.5071494 16.2822512,26.5572533 16.2804075,26.6156231 C16.2786775,26.6739929 16.4102111,26.7229676 16.5729538,26.724456 C16.8268546,26.7267903 16.8414483,26.7079362 16.6757992,26.5917054 Z M15.6483382,27.4062144 C15.6491726,27.2790741 15.7176231,27.0352596 15.8002722,26.8644121 C15.8829213,26.6935645 15.9487491,26.8036063 15.9465546,27.1089361 C15.9443296,27.414266 15.8759875,27.6580805 15.7946178,27.6507385 C15.7132509,27.6438399 15.6474232,27.5333547 15.6483382,27.4062144 Z M15.9431077,23.1558791 C15.955262,22.807096 15.9347331,22.6796956 15.8974722,22.8727591 C15.8602162,23.0658278 15.7771691,23.1499903 15.7129241,23.0597851 C15.6486791,22.9695799 15.6289925,23.0947998 15.6691759,23.3380138 C15.7755905,23.9821191 15.9176009,23.8876962 15.9431077,23.1558791 L15.9431077,23.1558791 Z M15.8968168,23.3716615 C16.0239687,22.7074102 15.8859595,22.5523796 15.7255574,23.1792921 C15.6333152,23.5398208 15.6230487,23.7614273 15.6982862,23.7679771 C15.7646479,23.7738056 15.853987,23.5954027 15.8968168,23.3716615 L15.8968168,23.3716615 Z M19.8959715,19.5501719 C19.8965349,19.4368583 19.8301942,19.199351 19.7485759,19.0223737 C19.6669596,18.8453963 19.5990712,18.9290461 19.5977151,19.2083586 C19.5964003,19.4876316 19.6626866,19.7251389 19.7451106,19.7361667 C19.8275346,19.7472044 19.8954211,19.6634363 19.8959715,19.5501719 Z M4.78761202,59.866671 C4.78955831,59.6711417 4.85875711,59.410417 4.9413825,59.2872923 C5.02400511,59.1641533 5.08896379,59.3284877 5.08573295,59.6524262 C5.08250768,59.9763788 5.0133061,60.2370964 4.93196248,60.2318049 C4.85061885,60.226833 4.78566296,60.0622074 4.78761202,59.866671 Z M8.77275149,46.9211577 C8.82991166,46.6242933 8.93282052,46.4924423 9.00143544,46.6281368 C9.072667,46.7690052 9.02807785,47.0005698 8.8975059,47.1678893 C8.73688866,47.3736927 8.69975628,47.3002527 8.77275149,46.9211577 Z M9.00801869,47.1279505 C8.85665699,46.9244111 8.84671882,46.825929 8.97533026,46.8040095 C9.29950416,46.7487825 9.37846632,46.7067116 9.5592102,46.4929191 C9.65650782,46.3778269 9.78214003,46.4390072 9.83839074,46.6288503 C9.90226551,46.8444326 9.87777205,46.8930734 9.77315245,46.7583972 C9.67388992,46.6306237 9.60325298,46.7271305 9.59978321,46.995266 C9.59318732,47.5058088 9.33248081,47.5642607 9.00801869,47.1279505 Z M8.78867387,45.8251567 C8.86731226,45.4385126 8.94137887,45.4194529 9.00564092,45.7692784 C9.06990298,46.1191138 9.02914558,46.3195167 8.88624323,46.3562958 C8.72283265,46.398377 8.6987489,46.2672059 8.78867387,45.825137 L8.78867387,45.8251567 Z M11.6990807,43.8692871 C11.7023571,43.5476524 11.7715908,43.3931111 11.8529247,43.5258763 C11.9342558,43.6586344 11.9991794,43.9260968 11.9971966,44.1202271 C11.9952195,44.3143575 11.9259885,44.4688917 11.8433582,44.463638 C11.7607222,44.4587017 11.6958014,44.1909219 11.6990807,43.8692871 Z M11.7854288,41.0833886 C11.9947251,40.3800258 12.0159009,40.3602896 11.9868028,40.8957023 C11.9726288,41.1562491 11.8880705,41.4175442 11.7988665,41.4763509 C11.6693863,41.5617133 11.6666758,41.482465 11.7854288,41.0833886 L11.7854288,41.0833886 Z M11.7230027,36.4501607 C11.6722634,36.1861548 11.7015444,35.9648055 11.8136484,35.7648978 C12.0168508,35.4025215 12.0557105,35.6305583 11.9084866,36.3214289 C11.8476932,36.6067132 11.7642249,36.6646502 11.7230027,36.4501607 Z M13.685354,25.1657854 C13.7264218,24.9960219 13.8304756,24.9889263 13.9165897,25.1500173 C14.0117485,25.3280097 13.9824645,25.4490596 13.8419218,25.4586486 C13.7147444,25.4675181 13.6442884,25.3355587 13.685354,25.1658051 L13.685354,25.1657854 Z M15.6600386,24.1802695 C15.7011043,24.0105159 15.8051608,24.0034203 15.8912731,24.1645014 C15.9864322,24.3424939 15.9571481,24.4635536 15.8166049,24.4731426 C15.6894269,24.4820122 15.6189707,24.3500429 15.6600386,24.1802794 L15.6600386,24.1802695 Z M15.733223,22.3530834 C15.7305385,21.9328922 15.7704811,21.7001073 15.8218596,21.8357868 C15.8732382,21.9714739 15.8753888,22.3152727 15.8266321,22.5997843 C15.7727599,22.9141866 15.7361193,22.817433 15.733217,22.3530834 L15.733223,22.3530834 Z M19.683614,14.409979 C19.5823409,14.1069151 19.5693939,13.9085928 19.6511757,13.9131194 C19.7260352,13.9178248 19.8177527,14.1494517 19.8549848,14.4291017 C19.9390325,15.0603657 19.8994829,15.0559615 19.683614,14.4099978 L19.683614,14.409979 Z" id="path2987-copy" fill="#F7F6F2" fill-rule="nonzero" transform="translate(78.000000, 42.000000) rotate(-180.000000) translate(-78.000000, -42.000000) "></path>
                                <g id="Group-3" transform="translate(37.000000, 0.000000)" fill="#7F3D98">
                                    <path d="M81.0959181,30.6781815 L81.0047888,15.6692409 L81.0047888,10.2204144 C81.0047888,9.92466308 81.0047888,9.49711648 80.9462105,9.1338751 C80.8876238,8.77383499 80.7704671,8.40094042 80.7704671,7.99911097 C80.1260801,5.09953309 78.2189632,2.62747713 75.5535686,1.25158899 C74.2778583,0.599015264 72.8751769,0.226112464 71.4399195,0.15542116 L67.9153033,0.15542116 L61.3510442,0.238999842 L49.1854739,0.435092088 C41.5439594,0.576540531 34.9045506,0.740480166 29.5807597,0.930145181 C29.2390373,0.907637531 28.9005726,1.02979605 28.6532204,1.26446814 C28.4026273,1.50234973 28.2691909,1.83346318 28.282213,2.17423806 C28.3928629,2.78180472 28.9396137,3.21576209 29.5645051,3.19329559 C34.8887959,3.3829606 41.5276214,3.54690847 49.1692192,3.68834868 L61.3247918,3.88444093 L67.889051,3.96801961 L71.1468111,3.96801961 C73.9033517,4.14803966 76.1879995,6.14430777 76.7119638,8.82210094 C76.7119638,9.04391034 76.777049,9.2592925 76.8030931,9.4811019 C76.8291289,9.7029113 76.8030931,9.89257631 76.8030931,10.1883277 L76.8030931,15.6371541 L76.6891857,30.6781897 L76.6891857,42.29905 C76.705457,44.237506 75.7356522,46.0569635 74.1051059,47.1370839 C73.307762,47.6642813 72.3932447,47.9954195 71.4397112,48.1014976 L70.6716523,48.1014976 L63.6159215,48.1014976 C62.3532083,48.1047071 61.3345229,49.1173456 61.3345229,50.3646069 L61.3345229,58.488017 L51.4600989,48.8348273 C51.0467845,48.4297801 50.4837373,48.2047612 49.901203,48.2079707 L37.8697688,48.2658322 L32.03776,48.2658322 L29.1152571,48.3236938 L28.3992697,48.3236938 L27.8394969,48.3236938 C27.48801,48.3076216 27.1397891,48.2529778 26.7980667,48.1661731 C25.4148809,47.825423 24.2009899,47.0056507 23.3743443,45.8548391 C22.970786,45.3179966 22.6583569,44.7200749 22.4500542,44.0868158 L22.3166179,43.6014077 L22.2320038,43.0999191 L22.2320038,43.0967096 C22.192946,42.7302423 22.1734171,42.3573395 22.1766747,41.9876215 L22.0530027,31.6587909 L21.7373161,13.3317206 L21.681987,11.290396 L21.681987,10.2938873 L21.681987,9.47093848 C21.7600943,8.43583345 22.0790302,7.42961393 22.6160249,6.5327643 C23.611882,4.88686666 25.2619239,3.72963602 27.1657416,3.35025662 C27.4846775,3.28275013 27.7743283,3.12201999 27.9988857,2.88734791 C28.2104293,2.66553851 28.3243284,2.36978716 28.3145723,2.06439908 C28.2852873,1.77186547 28.1127931,1.50826673 27.8556932,1.35718155 C27.549771,1.12894493 27.1624923,1.03250356 26.7816871,1.08714736 C24.1521177,1.43433301 21.7990688,2.88734791 20.3248202,5.07005507 C19.4916761,6.3012688 18.9677118,7.71246144 18.7920017,9.18479918 C18.7920017,9.54805702 18.7269165,10.007748 18.7269165,10.3035158 L18.7269165,11.3000245 L18.6846094,13.3413491 L18.5023592,24.1713556 C17.0020332,24.0717047 15.3194987,23.9913355 13.5034945,23.9013296 L10.4963441,23.7791711 L9.70550706,23.7791711 L8.73889326,23.7791711 L8.73563567,23.7759534 C8.01965661,23.8113155 7.30696181,23.9366835 6.62020112,24.1456384 C3.70744598,25.1004237 1.5334389,27.5210453 0.91183008,30.488105 C0.801180211,31.2178302 0.762122415,31.9507319 0.788158168,32.686942 L0.703544052,34.6382359 L0.628691053,38.6115151 C0.53756175,44.0024883 0.462712082,49.7698782 0.420405024,55.6975786 L0.420405024,57.9446403 C0.426913546,58.9379395 0.599397706,59.9248198 0.931355646,60.8635575 C1.59852079,62.7730456 2.90032596,64.3996863 4.62193412,65.4894351 C5.48765417,66.042358 6.44768613,66.437719 7.45329108,66.6595861 C7.94797289,66.7785268 8.4524,66.8524688 8.96011802,66.8813954 L9.68586152,66.8813954 L12.56929,66.8813954 L12.611597,76.1231107 C12.611597,77.0135413 13.1616055,77.8172332 13.9980322,78.1548068 C14.8344255,78.4891297 15.7944575,78.2898198 16.4258974,77.6533182 C20.350756,73.7282646 23.9827645,70.0570891 27.3900739,66.5854795 L34.888371,66.4376038 L36.8475927,66.4279589 L37.8630287,66.4279589 C38.2633295,66.4118867 38.6603726,66.3668796 39.0541748,66.2865104 C40.5642485,66.0068395 41.9701792,65.3220967 43.1190017,64.31275 C44.1734288,63.3837231 44.9740803,62.2071531 45.4459732,60.8891183 C45.6640236,60.2783339 45.8072161,59.6418571 45.8690521,58.9956776 C45.9048523,58.6870718 45.917866,58.378466 45.9113591,58.0666507 L45.9113591,57.2437019 C45.8332519,55.5271129 45.751887,53.9615351 45.660766,52.5439235 L48.9933425,52.5439235 L62.0078867,65.5218264 C62.6555229,66.1583279 63.6286019,66.3511942 64.4747431,66.0104523 C65.3241335,65.6697021 65.883923,64.8628501 65.8969201,63.9594992 L65.8969201,52.6859233 L70.6386765,52.6859233 C70.9803989,52.6859233 71.4718206,52.6859233 71.8721463,52.6280618 C77.1834401,52.0719294 81.1958621,47.616468 81.137542,42.3412015 L81.137542,38.4418231 L81.0959181,30.6781815 Z M43.0803854,57.2693038 L43.0803854,57.9861663 L43.0803854,57.9829486 C43.0641141,58.1854681 43.0380784,58.3879958 42.9957713,58.584088 C42.9209133,58.9923447 42.7939921,59.3877469 42.6215063,59.7606579 C42.2635126,60.5546719 41.7135459,61.2458337 41.0202866,61.7794337 C40.2945431,62.3355661 39.4321473,62.6892036 38.5208543,62.8081197 C38.2865325,62.8402641 38.0489531,62.8531268 37.8146314,62.8466996 L36.9000891,62.8466996 L34.9246211,62.7984748 L26.518197,62.6345269 L26.5149394,62.6345269 C26.0007312,62.6248819 25.5028359,62.8177647 25.1317535,63.1681598 L25.0731751,63.2163846 C22.5281698,65.6402158 19.8757722,68.1926739 17.1094838,70.870467 L17.1094838,64.6501261 C17.1094838,63.4092838 16.0907985,62.4030643 14.8345838,62.4030643 L9.66975685,62.4030643 L9.25318479,62.4030643 C8.99608485,62.3934194 8.74223417,62.3580572 8.49489035,62.296978 C7.99695343,62.1876822 7.52177802,61.9883722 7.09545651,61.7119108 C6.22648804,61.1686329 5.56588807,60.3553619 5.22088226,59.4005767 C5.04839727,58.9183781 4.96052472,58.4136965 4.9540187,57.9025629 L4.9540187,55.6876785 C4.91171081,49.7631053 4.84661726,44.0026282 4.74573267,38.601615 L4.62205993,34.6379643 C4.55697138,33.4839432 4.55697138,32.3266303 4.62205993,31.1726091 C4.90519562,29.4110049 6.10280696,27.9258292 7.77892795,27.2539737 C8.16946425,27.0996708 8.57952946,26.990375 8.99606819,26.926078 L9.63719758,26.8682165 L10.4280346,26.8682165 L13.435185,26.746058 C15.2674355,26.6624793 16.9434715,26.5724651 18.4340497,26.4824592 L18.3429204,31.6997902 L18.209484,41.9866504 C18.2062264,42.5042112 18.2322622,43.024965 18.2843337,43.5425175 L18.4080056,44.3654663 L18.6065272,45.1884151 L18.6097848,45.1884151 C18.9254714,46.2813735 19.4266576,47.313269 20.0937811,48.2390864 C21.4638865,50.1582031 23.4816783,51.5340912 25.7825724,52.1256268 C26.3618658,52.2799297 26.9508904,52.3795806 27.5497543,52.4213782 C27.83289,52.4213782 28.1746124,52.4213782 28.3828985,52.4631675 L43.3111747,52.4631675 C43.2330674,53.9419242 43.1549602,55.5460161 43.0801105,57.269024 L43.0803854,57.2693038 Z" id="Fill-1"></path>
                                    <path d="M43.0413364,38.426504 C44.7870061,39.70472 46.6166737,40.8650208 48.5207397,41.8945951 C49.1963736,42.270732 50.0239322,42.270732 50.6963303,41.8945951 C52.6036238,40.8682033 54.4332914,39.7110849 56.1757336,38.4360515 C57.9472233,37.154653 59.563627,35.6787967 60.9924212,34.0372064 C62.4697937,32.3860686 63.6238357,30.4830251 64.4029072,28.4206941 C65.1852145,26.3360042 65.3662779,24.0760328 64.9330631,21.8925227 C64.4804833,19.8014678 63.3490173,17.9112358 61.7133313,16.5086582 C60.2036838,15.2304422 58.2963903,14.5036935 56.3083263,14.4431447 C54.585332,14.4240172 52.9042954,14.9659044 51.5239965,15.9859148 C51.375291,16.1006638 51.2168947,16.2058571 51.0778883,16.3206142 L50.6899663,16.6871873 C50.4345875,16.9135027 50.1985985,17.1621363 49.9852435,17.4298974 L49.5973215,17.9367201 L49.183538,17.4298974 C48.9734105,17.1621444 48.7406573,16.9135109 48.4885142,16.6871873 C48.2395986,16.4258075 47.9615858,16.1899202 47.6609473,15.9859148 C46.2870207,14.972253 44.6092943,14.4335973 42.8927551,14.4526922 C40.9111461,14.5068842 39.0038527,15.2336492 37.4974326,16.5086582 C35.8648914,17.9112358 34.7367522,19.7982037 34.2873833,21.8860761 C33.8477384,24.0664038 34.0287687,26.3263751 34.8078484,28.4142475 C35.5836924,30.473396 36.7377345,32.3764396 38.2086519,34.0275773 C39.6439839,35.6723501 41.2667599,37.1482065 43.0414771,38.4264224 L43.0413364,38.426504 Z M38.1858359,22.6291452 C38.3894918,21.3190229 39.0069395,20.1045382 39.9476431,19.1610542 C40.7978025,18.3195729 41.9002044,17.7808356 43.0930594,17.6182841 C44.1598759,17.5003445 45.2362921,17.7202868 46.1706152,18.2398639 C46.4033684,18.3482397 46.6199592,18.4853069 46.8171518,18.6478746 C47.0305068,18.7817511 47.2309353,18.9379458 47.4119655,19.1100773 L47.948593,19.6073445 L47.9518288,19.6105351 C48.2427682,19.9707351 48.5822031,20.2894894 48.9604673,20.5636481 C49.0283527,20.6337689 49.1188719,20.6720239 49.2158462,20.6720239 C49.3128288,20.6720239 49.4065756,20.6337689 49.4744609,20.5636481 C49.5908416,20.350079 49.6393288,20.1046361 49.607004,19.8623756 C49.58437,19.5691139 49.58437,19.2758602 49.607004,18.9826229 L49.607004,19.0878163 L49.607004,20.0185703 C49.607004,20.5668388 49.872082,20.8345917 50.2761663,20.5827757 L50.2761663,20.579585 C50.6511617,20.3022683 50.9905883,19.9803152 51.2848049,19.6169246 L51.8214324,19.1260387 L51.8246599,19.1292294 C52.0056901,18.9570978 52.199647,18.8040938 52.4097745,18.6702173 L52.7168763,18.4502751 L53.0563111,18.2717704 C53.9873239,17.7553838 55.0573679,17.5354416 56.1176466,17.6501905 C57.3072741,17.8127583 58.4063657,18.351463 59.2566079,19.1865957 C60.1940757,20.1268972 60.8115234,21.3318344 61.0184151,22.6355918 C61.2156078,24.1050832 61.0184151,25.596852 60.4397638,26.9611582 C59.7706015,28.5199223 58.8298979,29.9511423 57.656408,31.1879044 C56.4021476,32.5585755 54.9959459,33.7889727 53.470078,34.8600008 C52.2287277,35.7493009 50.9356544,36.5685864 49.5973132,37.308065 C48.258972,36.5685456 46.9658987,35.7493009 45.7245483,34.8600008 C44.1986805,33.7889727 42.7924788,32.5585755 41.5382184,31.1879044 C40.3647285,29.9511423 39.4240332,28.5199223 38.7548626,26.9611582 C38.179447,25.5936695 37.9822544,24.0987182 38.1859103,22.6292269 L38.1858359,22.6291452 Z" id="Fill-2"></path>
                                </g>
                            </g>
                        </g>
                    </g>
                </g>
            </g>
        </g>
    </g>
</svg>