<?xml version="1.0" encoding="UTF-8"?>
<svg width="40px" height="37px" viewBox="0 0 40 37" version="1.1" xmlns="http://www.w3.org/2000/svg" xmlns:xlink="http://www.w3.org/1999/xlink">
    <!-- Generator: Sketch 54.1 (76490) - https://sketchapp.com -->
    <title>Instagram</title>
    <desc>Created with Sketch.</desc>
    <g id="Home" stroke="none" stroke-width="1" fill="none" fill-rule="evenodd">
        <g transform="translate(-1437.000000, -50.000000)" fill="#EEB100" id="Group-48">
            <g transform="translate(562.000000, 40.000000)">
                <path d="M912.610527,23.6929107 C912.243225,22.319014 911.849568,20.9486849 911.315314,19.6266084 C911.230958,19.4157878 911.172961,19.1924627 911.072791,18.9888046 C910.872447,18.5814608 910.651011,18.1848379 910.440143,17.7846383 C910.192348,17.3165649 909.963881,16.8359595 909.691467,16.3839397 C909.364588,15.8408117 909.000782,15.3191344 908.649321,14.7920601 C908.608898,14.7313167 908.543874,14.6884381 908.484123,14.6419875 C908.231055,14.4436761 908.06937,14.1953373 908.058829,13.9452286 C907.761824,13.7040386 907.473601,13.5718264 907.352353,13.346713 C907.208246,13.0769373 906.976265,12.9679549 906.772389,12.8035849 C906.684519,12.7321207 906.580831,12.6803097 906.487688,12.6142059 C906.002652,12.2676056 905.519371,11.9192307 905.03429,11.572635 C904.78825,11.6691129 904.77419,11.3600307 904.586151,11.3135755 C904.391079,11.2635483 904.222367,11.1009712 904.043123,10.9866285 C903.818173,10.8454884 903.610797,10.6471723 903.364765,10.5739244 C902.357757,10.2684143 901.398213,9.81102959 900.350803,9.63238049 C899.693546,9.51982607 899.053835,9.30543343 898.401842,9.15355883 C898.09605,9.08209462 897.76564,8.95524735 897.47919,9.01599079 C896.944935,9.13033353 896.412435,9.17142374 895.871161,9.17678413 C895.458168,9.1803562 895.043438,9.21966266 894.63043,9.20536981 C894.068057,9.18571658 893.507438,9.1035316 892.945065,9.09638746 C892.359836,9.08745501 891.776363,9.08924333 891.21048,9.32150088 C890.739481,9.51445654 890.243917,9.69847517 889.7448,9.76100693 C888.888957,9.86998928 888.12269,10.2040851 887.372303,10.5864243 C886.897795,10.8276143 886.331912,10.8008169 885.904869,11.1617055 C885.85039,11.2081561 885.729129,11.17421 885.641255,11.1831471 C885.435638,11.204584 885.187847,11.1634938 885.033172,11.2671158 C884.741439,11.4600715 884.498917,11.729838 884.244094,11.9799742 C884.152711,12.0710916 884.099987,12.2015155 884.013872,12.3015654 C883.702808,12.6624586 883.293314,12.9322342 883.057837,13.3628033 C882.976995,13.5093038 882.91373,13.6754575 882.80301,13.7951606 C882.400562,14.2382387 882.105307,14.747407 881.822366,15.2726975 C881.680013,15.5371128 881.458582,15.7622217 881.326757,16.0301953 C881.052598,16.5858096 880.811848,17.1593527 880.555271,17.7256695 C880.511334,17.8221473 880.462128,17.9204089 880.397104,18.0025939 C880.25827,18.1794684 880.093072,18.3349013 879.968297,18.5189199 C879.841763,18.7047269 879.782012,18.9405565 879.641418,19.1103006 C879.182746,19.6623474 879.068517,20.3394851 878.984161,21.0130553 C878.912105,21.599039 878.748666,22.1529152 878.513162,22.67816 C878.307545,23.1390985 878.096655,23.5911182 877.964825,24.0859936 C877.803141,24.7006087 877.579951,25.2990786 877.404207,25.9101262 C877.33391,26.1584649 877.311064,26.421101 877.277673,26.6801559 C877.172225,27.4930414 876.901583,28.2934405 877.103688,29.1313899 C877.130047,29.2421606 877.077324,29.3743682 877.059751,29.4976434 C877.038664,29.647716 877,29.7995814 877,29.949654 C877.001757,30.8786659 877.0123,31.8095073 877.022845,32.7385649 C877.024605,32.8886375 876.985941,33.0583678 877.043937,33.1852151 C877.209135,33.5478966 877.202103,33.9213079 877.214408,34.3036243 C877.226708,34.7145447 877.265372,35.1326092 877.340942,35.5363763 C877.446389,36.0919905 877.592251,36.6387318 877.732844,37.1854273 C877.850592,37.644582 877.952521,38.1126554 878.126506,38.5504052 C878.274126,38.9255912 878.514894,39.2632636 878.713489,39.618778 C878.968316,40.083284 879.379564,40.4513304 879.52893,40.9837559 C879.532444,40.9962605 879.550017,41.0051929 879.558803,41.0176974 C879.998157,41.5268885 880.44101,42.0343004 880.876872,42.545225 C881.061402,42.7631897 881.194964,43.0937042 881.425208,43.18838 C881.846989,43.3634662 881.887389,43.9101571 882.33027,44.0227161 C882.493709,44.360384 882.792451,44.5587092 883.070128,44.7820434 C883.233568,44.9142511 883.368888,45.0839814 883.520027,45.2322702 C883.694012,45.4002123 883.846906,45.6092445 884.050773,45.7235781 C884.616655,46.0415927 885.187802,46.3595982 885.787112,46.6008156 C886.48657,46.8831027 887.214146,47.0939096 887.938168,47.3136763 C888.352916,47.4387398 888.778219,47.5280689 889.203508,47.613826 C889.435485,47.6602766 889.676262,47.6549176 889.911739,47.6924389 C890.542632,47.7942771 891.170061,47.9800841 891.802709,47.9961607 C892.741153,48.0193869 893.681396,47.9318452 894.61984,47.8782459 C895.066225,47.8532332 895.510864,47.8014213 895.955499,47.7531824 C896.224386,47.7228102 896.491509,47.6370513 896.758659,47.6406279 C897.600464,47.6549208 898.398315,47.3976496 899.215511,47.2600816 C899.656623,47.186829 900.073108,46.9777968 900.537089,47.0188916 C900.617931,47.0260375 900.714587,46.979586 900.784884,46.9313462 C901.428104,46.4829054 902.153926,46.4257203 902.895539,46.477545 C903.740854,46.5365047 904.484221,46.3113913 905.109896,45.7236147 C905.355936,45.4931409 905.601995,45.26446 905.835717,45.0232883 C906.013216,44.8392697 906.173141,44.6355932 906.345363,44.4444396 C906.415659,44.3658267 906.492984,44.2925787 906.57734,44.230047 C907.041275,43.8834467 907.515783,43.5529093 907.967437,43.1902598 C908.151967,43.041971 908.297833,42.8382991 908.4437,42.6453481 C908.747732,42.2415764 909.034192,41.8252819 909.334724,41.4179473 C909.538582,41.1410229 909.81976,40.9123237 909.823269,40.5139079 C909.823269,40.4370833 909.912898,40.3584749 909.963863,40.2834341 C910.067551,40.1333615 910.187053,39.9922168 910.273168,39.8314235 C910.485817,39.4276518 910.659802,39.0006549 910.893533,38.6075903 C911.185266,38.1162824 911.566627,37.6767489 911.668574,37.085414 C911.675606,37.0425355 911.712511,37.0050173 911.733598,36.9639225 C911.904069,36.6244664 912.106173,36.297533 912.232716,35.9437566 C912.403187,35.4721157 912.522689,34.980762 912.649223,34.4930216 C912.682614,34.3625977 912.673828,34.2178856 912.673828,34.0821013 C912.673828,33.9159475 912.635164,33.7444334 912.663282,33.5854421 C912.758184,33.0351791 912.656255,32.4652492 912.861872,31.9256886 C912.91635,31.7827602 912.861872,31.5951649 912.856599,31.4290295 C912.853086,31.3111147 912.835513,31.1949836 912.84254,31.0770688 C912.861872,30.7590542 912.902291,30.4410488 912.909323,30.1230387 C912.9269,29.4066129 912.925141,28.6884032 912.937442,27.9719774 C912.951501,27.2198308 912.958533,26.4676385 912.997193,25.7172757 C913.02883,25.0062011 912.786303,24.3469466 912.610559,23.6930433 L912.610527,23.6929107 Z M882.875169,40.0386217 C882.514899,39.4276198 882.061482,38.8719598 881.766259,38.1126783 C882.175739,38.244886 882.499099,38.3342197 882.845296,38.2556067 C882.906806,38.2413139 883.087818,38.4306929 883.073759,38.4682111 C882.926134,38.8362529 883.251258,39.1185468 883.226653,39.4597913 C883.20908,39.7224229 883.223139,39.9850361 883.223139,40.2941274 C883.033336,40.303037 882.947225,40.1618969 882.875169,40.0386217 Z M884.834694,34.5912192 C884.657196,34.4250655 884.569326,34.3500292 884.711674,34.1106138 C884.852267,33.8765679 884.846995,33.5549995 884.910264,33.2727102 C884.941896,33.1351421 884.984074,32.9993578 885.022739,32.8635781 C885.052612,32.8689385 885.084249,32.8742989 885.115881,32.8796593 C885.115881,33.3298861 885.133454,33.7836987 885.103576,34.2321052 C885.096549,34.3518129 884.938383,34.459007 884.834694,34.5912192 Z M886.602644,18.8456932 C886.702818,18.3901106 886.996305,18.0042221 887.481341,17.7612209 C887.2107,18.0971004 886.938313,18.4311779 886.602644,18.8456932 Z M888.922412,37.3870547 C889.096397,37.1279952 889.242263,36.9100168 889.421529,36.6420431 C889.440862,37.0690401 889.289723,37.2959464 888.922412,37.3870547 Z M890.277372,35.1180831 C890.365242,34.9680105 890.428511,34.8626002 890.488262,34.75719 C890.495289,35.0108891 890.495289,35.0108891 890.277372,35.1180831 Z M890.924097,18.1774331 C891.103354,18.5204613 890.88016,18.7259123 890.695634,18.9421116 C890.504076,19.1690087 890.272095,19.0975445 889.973321,19.0242966 C890.120942,18.6705476 890.233417,18.3435914 890.389829,18.039897 C890.569086,17.6897247 890.767672,17.3449219 890.994403,17.0250823 C891.108636,16.864289 891.303708,16.7642391 891.463647,16.6356035 C891.488247,16.6641892 891.512857,16.6909866 891.537457,16.7177885 C891.361713,17.0215103 891.19652,17.3270066 891.010221,17.6200442 C890.895978,17.7986476 890.823927,17.9862429 890.924097,18.1774331 Z M896.682986,46.1718245 C896.591598,46.2004102 896.500214,46.2307842 896.345562,46.2808069 C896.38774,46.1628921 896.405313,46.0414006 896.43519,46.0378286 C896.516033,46.0288961 896.603902,46.0699909 896.688258,46.0914279 C896.688258,46.1182298 896.686499,46.1450272 896.682986,46.1718245 Z M895.544166,27.5770513 C896.043284,26.5014977 896.54942,25.4295574 897.097711,24.266463 C897.092439,24.8328255 896.046793,27.248293 895.50902,27.8861426 C895.519561,27.7825114 895.501988,27.6663804 895.544166,27.5770513 Z M897.097716,37.0784071 C897.206677,36.7961223 897.305092,36.5084771 897.429867,36.2333227 C897.501923,36.0707411 897.57046,36.0796735 897.890294,36.2547597 C897.633712,36.5638419 897.403503,36.8407434 897.173245,37.1176815 C897.14868,37.1052044 897.122321,37.0909116 897.097716,37.0784071 Z M897.804178,28.7688594 C897.804178,28.3239929 897.928953,28.1542443 898.298032,28.1900107 C898.102961,28.4151241 897.962367,28.5830661 897.804178,28.7688594 Z M906.181955,18.0135525 C906.341881,18.3065535 906.477201,18.5566805 906.614281,18.8068167 C906.584403,18.8264699 906.556284,18.8443394 906.528166,18.8621997 C906.326062,18.6442396 906.037866,18.4727255 906.181955,18.0135525 Z M908.898907,33.5500919 C908.988536,33.2678071 909.060592,33.0391171 909.134402,32.8086479 C909.20294,32.5924669 909.273237,32.3780743 909.347051,32.1422584 C909.55091,32.5906969 909.559701,32.8354498 909.396261,33.7734262 C909.206467,33.68766 909.055333,33.6197678 908.898907,33.5500919 Z M909.413843,31.9814376 C909.081692,31.6026796 909.085206,31.5758776 909.524559,31.4329583 C909.480622,31.647351 909.450749,31.7974281 909.413843,31.9814376 Z M897.769917,36.9506706 C895.671295,37.5129947 895.405759,37.5746107 894.571472,37.7578508 C893.738928,37.9407227 893.14219,37.960598 892.599482,37.9012628 C892.03843,37.8399714 891.536693,37.6912154 890.991965,37.3767425 C890.447259,37.0622307 890.067564,36.7020909 889.733927,36.24686 C889.411218,35.8065201 889.130062,35.2797924 888.872161,34.467352 C888.613708,33.6532185 888.534302,33.3924498 887.971969,31.2937969 C887.409645,29.1951746 887.348029,28.9296389 887.164789,28.0953522 C886.981917,27.262808 886.962042,26.6660702 887.021346,26.12337 C887.082668,25.5623104 887.231424,25.0605724 887.545897,24.5158445 C887.860409,23.9711389 888.220549,23.5914435 888.67578,23.2578072 C889.11612,22.9350979 889.642847,22.6539415 890.455288,22.3960411 C891.269421,22.1375884 891.53019,22.0581815 893.628812,21.4958573 C895.727465,20.933525 895.993001,20.871909 896.827288,20.6886689 C897.659832,20.505797 898.25657,20.4859217 898.79927,20.5452263 C899.360329,20.6065483 899.862067,20.7553043 900.406795,21.0697772 C900.951501,21.384289 901.331196,21.7444288 901.664802,22.199668 C901.987542,22.6399996 902.268698,23.1667273 902.526599,23.9791677 C902.785051,24.7933012 902.864458,25.0540699 903.426782,27.1526922 C903.989115,29.2513451 904.050731,29.5168808 904.233971,30.3511675 C904.416843,31.1837117 904.436718,31.7804495 904.377383,32.3231579 C904.316092,32.8842093 904.167336,33.3859473 903.852863,33.9306752 C903.538351,34.4753808 903.178211,34.8550762 902.722972,35.1886818 C902.28264,35.5114218 901.755913,35.7925782 900.943472,36.0504786 C900.129339,36.3089313 899.86857,36.3883382 897.769917,36.9506706 Z M897.396845,35.5583475 C899.460162,35.0054835 899.70246,34.9321108 900.507322,34.6766025 C901.251531,34.4403708 901.62696,34.2048506 901.870898,34.0260646 C902.194032,33.7892365 902.40658,33.5528127 902.604512,33.2099397 C902.802483,32.8670892 902.900958,32.5648052 902.94449,32.1665486 C902.977354,31.8658998 902.993606,31.4230084 902.826084,30.6603885 C902.64493,29.8356032 902.587323,29.5890805 902.034459,27.525764 C901.481604,25.4624781 901.408231,25.2201801 901.152723,24.4153178 C900.916491,23.6711086 900.680971,23.2956793 900.502185,23.0517421 C900.265357,22.7286078 900.028902,22.5160678 899.68606,22.3181277 C899.343209,22.120157 899.040925,22.0216821 898.642669,21.97815 C898.34202,21.9452854 897.899129,21.9290336 897.136509,22.0965555 C896.311815,22.2776854 896.065354,22.3352753 894.001884,22.8881804 C891.938445,23.4410773 891.696178,23.5144418 890.891438,23.7699172 C890.147229,24.0061489 889.771799,24.2416691 889.527862,24.4204551 C889.204728,24.6572832 888.99218,24.893707 888.794248,25.23658 C888.596277,25.5794305 888.497802,25.8817145 888.45427,26.2799711 C888.421406,26.5806199 888.405154,27.0235113 888.572676,27.7861312 C888.75383,28.6109165 888.811437,28.8574392 889.364292,30.920725 C889.917156,32.9840416 889.990529,33.2263396 890.246037,34.0312019 C890.482269,34.7754111 890.717789,35.1508404 890.896575,35.3947776 C891.133403,35.7179119 891.369827,35.9304601 891.7127,36.128392 C892.055551,36.3263627 892.357835,36.4248376 892.756091,36.4683697 C893.05674,36.5012342 893.499631,36.5174861 894.262251,36.3499642 C895.087037,36.1688097 895.333559,36.1112033 897.396845,35.5583475 Z M896.762621,33.1913892 C894.571087,33.7786089 892.318479,32.4780649 891.731251,30.2865005 C891.144031,28.0949667 892.444575,25.8423584 894.636109,25.2551387 C896.827673,24.6679108 899.080281,25.9684548 899.667501,28.1599886 C900.254729,30.351553 898.954185,32.6041613 896.762621,33.1913892 Z M895.009181,26.6474618 C893.586613,27.0286376 892.742398,28.4908611 893.123574,29.9134286 C893.504758,31.3360269 894.966981,32.180242 896.389549,31.7990662 C897.812147,31.4178821 898.656362,29.9556586 898.275178,28.5330604 C897.894002,27.1104928 896.431779,26.2662777 895.009181,26.6474618 Z M891.752438,34.7018942 C891.615213,34.1897613 891.919148,33.6633744 892.431281,33.5261488 C892.943383,33.3889314 893.469793,33.692828 893.607018,34.204961 C893.744244,34.7170939 893.440317,35.2435114 892.928214,35.3807288 C892.416081,35.5179544 891.889664,35.2140271 891.752438,34.7018942 Z" id="Instagram" transform="translate(895.000000, 28.500000) rotate(-264.000000) translate(-895.000000, -28.500000) "></path>
            </g>
        </g>
    </g>
</svg>