<?xml version="1.0" encoding="UTF-8"?>
<svg width="41px" height="38px" viewBox="0 0 41 38" version="1.1" xmlns="http://www.w3.org/2000/svg" xmlns:xlink="http://www.w3.org/1999/xlink">
    <!-- Generator: Sketch 54.1 (76490) - https://sketchapp.com -->
    <title>Twitter</title>
    <desc>Created with Sketch.</desc>
    <g id="Home" stroke="none" stroke-width="1" fill="none" fill-rule="evenodd">
        <g transform="translate(-1378.000000, -51.000000)" fill="#EEB100" id="Group-48">
            <g transform="translate(562.000000, 40.000000)">
                <path d="M853.610527,25.6929107 C853.243225,24.319014 852.849568,22.9486849 852.315314,21.6266084 C852.230958,21.4157878 852.172961,21.1924627 852.072791,20.9888046 C851.872447,20.5814608 851.651011,20.1848379 851.440143,19.7846383 C851.192348,19.3165649 850.963881,18.8359595 850.691467,18.3839397 C850.364588,17.8408117 850.000782,17.3191344 849.649321,16.7920601 C849.608898,16.7313167 849.543874,16.6884381 849.484123,16.6419875 C849.231055,16.4436761 849.06937,16.1953373 849.058829,15.9452286 C848.761824,15.7040386 848.473601,15.5718264 848.352353,15.346713 C848.208246,15.0769373 847.976265,14.9679549 847.772389,14.8035849 C847.684519,14.7321207 847.580831,14.6803097 847.487688,14.6142059 C847.002652,14.2676056 846.519371,13.9192307 846.03429,13.572635 C845.78825,13.6691129 845.77419,13.3600307 845.586151,13.3135755 C845.391079,13.2635483 845.222367,13.1009712 845.043123,12.9866285 C844.818173,12.8454884 844.610797,12.6471723 844.364765,12.5739244 C843.357757,12.2684143 842.398213,11.8110296 841.350803,11.6323805 C840.693546,11.5198261 840.053835,11.3054334 839.401842,11.1535588 C839.09605,11.0820946 838.76564,10.9552474 838.47919,11.0159908 C837.944935,11.1303335 837.412435,11.1714237 836.871161,11.1767841 C836.458168,11.1803562 836.043438,11.2196627 835.63043,11.2053698 C835.068057,11.1857166 834.507438,11.1035316 833.945065,11.0963875 C833.359836,11.087455 832.776363,11.0892433 832.21048,11.3215009 C831.739481,11.5144565 831.243917,11.6984752 830.7448,11.7610069 C829.888957,11.8699893 829.12269,12.2040851 828.372303,12.5864243 C827.897795,12.8276143 827.331912,12.8008169 826.904869,13.1617055 C826.85039,13.2081561 826.729129,13.17421 826.641255,13.1831471 C826.435638,13.204584 826.187847,13.1634938 826.033172,13.2671158 C825.741439,13.4600715 825.498917,13.729838 825.244094,13.9799742 C825.152711,14.0710916 825.099987,14.2015155 825.013872,14.3015654 C824.702808,14.6624586 824.293314,14.9322342 824.057837,15.3628033 C823.976995,15.5093038 823.91373,15.6754575 823.80301,15.7951606 C823.400562,16.2382387 823.105307,16.747407 822.822366,17.2726975 C822.680013,17.5371128 822.458582,17.7622217 822.326757,18.0301953 C822.052598,18.5858096 821.811848,19.1593527 821.555271,19.7256695 C821.511334,19.8221473 821.462128,19.9204089 821.397104,20.0025939 C821.25827,20.1794684 821.093072,20.3349013 820.968297,20.5189199 C820.841763,20.7047269 820.782012,20.9405565 820.641418,21.1103006 C820.182746,21.6623474 820.068517,22.3394851 819.984161,23.0130553 C819.912105,23.599039 819.748666,24.1529152 819.513162,24.67816 C819.307545,25.1390985 819.096655,25.5911182 818.964825,26.0859936 C818.803141,26.7006087 818.579951,27.2990786 818.404207,27.9101262 C818.33391,28.1584649 818.311064,28.421101 818.277673,28.6801559 C818.172225,29.4930414 817.901583,30.2934405 818.103688,31.1313899 C818.130047,31.2421606 818.077324,31.3743682 818.059751,31.4976434 C818.038664,31.647716 818,31.7995814 818,31.949654 C818.001757,32.8786659 818.0123,33.8095073 818.022845,34.7385649 C818.024605,34.8886375 817.985941,35.0583678 818.043937,35.1852151 C818.209135,35.5478966 818.202103,35.9213079 818.214408,36.3036243 C818.226708,36.7145447 818.265372,37.1326092 818.340942,37.5363763 C818.446389,38.0919905 818.592251,38.6387318 818.732844,39.1854273 C818.850592,39.644582 818.952521,40.1126554 819.126506,40.5504052 C819.274126,40.9255912 819.514894,41.2632636 819.713489,41.618778 C819.968316,42.083284 820.379564,42.4513304 820.52893,42.9837559 C820.532444,42.9962605 820.550017,43.0051929 820.558803,43.0176974 C820.998157,43.5268885 821.44101,44.0343004 821.876872,44.545225 C822.061402,44.7631897 822.194964,45.0937042 822.425208,45.18838 C822.846989,45.3634662 822.887389,45.9101571 823.33027,46.0227161 C823.493709,46.360384 823.792451,46.5587092 824.070128,46.7820434 C824.233568,46.9142511 824.368888,47.0839814 824.520027,47.2322702 C824.694012,47.4002123 824.846906,47.6092445 825.050773,47.7235781 C825.616655,48.0415927 826.187802,48.3595982 826.787112,48.6008156 C827.48657,48.8831027 828.214146,49.0939096 828.938168,49.3136763 C829.352916,49.4387398 829.778219,49.5280689 830.203508,49.613826 C830.435485,49.6602766 830.676262,49.6549176 830.911739,49.6924389 C831.542632,49.7942771 832.170061,49.9800841 832.802709,49.9961607 C833.741153,50.0193869 834.681396,49.9318452 835.61984,49.8782459 C836.066225,49.8532332 836.510864,49.8014213 836.955499,49.7531824 C837.224386,49.7228102 837.491509,49.6370513 837.758659,49.6406279 C838.600464,49.6549208 839.398315,49.3976496 840.215511,49.2600816 C840.656623,49.186829 841.073108,48.9777968 841.537089,49.0188916 C841.617931,49.0260375 841.714587,48.979586 841.784884,48.9313462 C842.428104,48.4829054 843.153926,48.4257203 843.895539,48.477545 C844.740854,48.5365047 845.484221,48.3113913 846.109896,47.7236147 C846.355936,47.4931409 846.601995,47.26446 846.835717,47.0232883 C847.013216,46.8392697 847.173141,46.6355932 847.345363,46.4444396 C847.415659,46.3658267 847.492984,46.2925787 847.57734,46.230047 C848.041275,45.8834467 848.515783,45.5529093 848.967437,45.1902598 C849.151967,45.041971 849.297833,44.8382991 849.4437,44.6453481 C849.747732,44.2415764 850.034192,43.8252819 850.334724,43.4179473 C850.538582,43.1410229 850.81976,42.9123237 850.823269,42.5139079 C850.823269,42.4370833 850.912898,42.3584749 850.963863,42.2834341 C851.067551,42.1333615 851.187053,41.9922168 851.273168,41.8314235 C851.485817,41.4276518 851.659802,41.0006549 851.893533,40.6075903 C852.185266,40.1162824 852.566627,39.6767489 852.668574,39.085414 C852.675606,39.0425355 852.712511,39.0050173 852.733598,38.9639225 C852.904069,38.6244664 853.106173,38.297533 853.232716,37.9437566 C853.403187,37.4721157 853.522689,36.980762 853.649223,36.4930216 C853.682614,36.3625977 853.673828,36.2178856 853.673828,36.0821013 C853.673828,35.9159475 853.635164,35.7444334 853.663282,35.5854421 C853.758184,35.0351791 853.656255,34.4652492 853.861872,33.9256886 C853.91635,33.7827602 853.861872,33.5951649 853.856599,33.4290295 C853.853086,33.3111147 853.835513,33.1949836 853.84254,33.0770688 C853.861872,32.7590542 853.902291,32.4410488 853.909323,32.1230387 C853.9269,31.4066129 853.925141,30.6884032 853.937442,29.9719774 C853.951501,29.2198308 853.958533,28.4676385 853.997193,27.7172757 C854.02883,27.0062011 853.786303,26.3469466 853.610559,25.6930433 L853.610527,25.6929107 Z M824.223139,42.2941045 C824.033336,42.303037 823.947225,42.1618969 823.875169,42.0386217 C823.514899,41.4276198 823.061482,40.8719598 822.766259,40.1126783 C823.175739,40.244886 823.499099,40.3342197 823.845296,40.2556067 C823.906806,40.2413139 824.087818,40.4306929 824.073759,40.4682111 C823.926134,40.8362529 824.251258,41.1185468 824.226653,41.4597913 C824.20908,41.7224229 824.223139,41.9850361 824.223139,42.2941274 L824.223139,42.2941045 Z M826.103581,36.2321098 C826.096549,36.3518129 825.938383,36.459007 825.834694,36.5912192 C825.657196,36.4250655 825.569326,36.3500292 825.711674,36.1106138 C825.852267,35.8765679 825.846995,35.5549995 825.910264,35.2727102 C825.941896,35.1351421 825.984074,34.9993578 826.022739,34.8635781 C826.052612,34.8689385 826.084249,34.8742989 826.115881,34.8796593 C826.115881,35.3298861 826.133454,35.7836987 826.103576,36.2321052 L826.103581,36.2321098 Z M827.602644,20.8456932 C827.702818,20.3901106 827.996305,20.0042221 828.481341,19.7612209 C828.2107,20.0971004 827.938313,20.4311779 827.602644,20.8456932 Z M829.922412,39.3870547 C830.096397,39.1279952 830.242263,38.9100168 830.421529,38.6420431 C830.440862,39.0690401 830.289723,39.2959464 829.922412,39.3870547 Z M831.277372,37.1180831 C831.365242,36.9680105 831.428511,36.8626002 831.488262,36.75719 C831.495289,37.0108891 831.495289,37.0108891 831.277372,37.1180831 Z M832.010212,19.6199893 C831.895978,19.7986476 831.823927,19.9862429 831.924097,20.1774331 C832.103354,20.5204613 831.88016,20.7259123 831.695634,20.9421116 C831.504076,21.1690087 831.272095,21.0975445 830.973321,21.0242966 C831.120942,20.6705476 831.233417,20.3435914 831.389829,20.039897 C831.569086,19.6897247 831.767672,19.3449219 831.994403,19.0250823 C832.108636,18.864289 832.303708,18.7642391 832.463647,18.6356035 C832.488247,18.6641892 832.512857,18.6909866 832.537457,18.7177885 C832.361713,19.0215103 832.19652,19.3270066 832.010221,19.6200442 L832.010212,19.6199893 Z M837.682986,48.1718245 C837.591598,48.2004102 837.500214,48.2307842 837.345562,48.2808069 C837.38774,48.1628921 837.405313,48.0414006 837.43519,48.0378286 C837.516033,48.0288961 837.603902,48.0699909 837.688258,48.0914279 C837.688258,48.1182298 837.686499,48.1450272 837.682986,48.1718245 Z M836.50902,29.8861426 C836.519561,29.7825114 836.501988,29.6663804 836.544166,29.5770513 C837.043284,28.5014977 837.54942,27.4295574 838.097711,26.266463 C838.092439,26.8328255 837.046793,29.248293 836.50902,29.8861426 L836.50902,29.8861426 Z M838.173285,39.1177089 C838.14868,39.1052044 838.122321,39.0909116 838.097716,39.0784071 C838.206677,38.7961223 838.305092,38.5084771 838.429867,38.2333227 C838.501923,38.0707411 838.57046,38.0796735 838.890294,38.2547597 C838.633712,38.5638419 838.403503,38.8407434 838.173245,39.1176815 L838.173285,39.1177089 Z M838.804178,30.7688594 C838.804178,30.3239929 838.928953,30.1542443 839.298032,30.1900107 C839.102961,30.4151241 838.962367,30.5830661 838.804178,30.7688594 Z M847.528166,20.8622043 C847.326062,20.6442396 847.037866,20.4727255 847.181955,20.0135525 C847.341881,20.3065535 847.477201,20.5566805 847.614281,20.8068167 C847.584403,20.8264699 847.556284,20.8443394 847.528166,20.8621997 L847.528166,20.8622043 Z M850.39627,35.773417 C850.206467,35.68766 850.055333,35.6197678 849.898907,35.5500919 C849.988536,35.2678071 850.060592,35.0391171 850.134402,34.8086479 C850.20294,34.5924669 850.273237,34.3780743 850.347051,34.1422584 C850.55091,34.5906969 850.559701,34.8354498 850.396261,35.7734262 L850.39627,35.773417 Z M850.973036,33.1524 C850.640885,32.773642 850.644399,32.74684 851.083752,32.6039208 C851.039815,32.8183134 851.009941,32.9683905 850.973036,33.1524 Z M835.852132,40.1861828 C835.468504,39.432951 835.222311,38.6155994 835.12733,37.7830726 C834.993889,37.7128624 834.8593,37.6385735 834.726191,37.5617226 C830.681236,35.2263669 827.751074,29.5323258 830.92135,24.0412459 C831.894127,22.3563469 833.307385,21.079476 834.937089,20.2589134 C834.774465,20.4758703 834.622894,20.7060407 834.483855,20.9468626 C833.676741,22.3448249 833.422758,23.9152531 833.654503,25.4108617 C834.432506,24.1179262 835.953887,23.5274536 837.388792,23.8492028 C837.247869,24.0103707 837.121009,24.1876284 837.010074,24.3797735 C836.852793,24.6521925 836.736347,24.9368013 836.663694,25.2284759 C837.732796,24.023902 839.564308,23.7092678 841.047779,24.5657503 L841.085435,24.587491 C840.625031,24.8591133 840.219547,25.2398715 839.922639,25.7197519 C840.934191,25.2357301 842.175421,25.2498151 843.236795,25.8625995 C843.797256,26.186182 844.238761,26.6369304 844.543978,27.1558775 C841.839575,27.5586396 839.352733,29.0548527 837.792584,31.4618421 C838.046351,31.5400364 838.294084,31.6489061 838.534031,31.7874399 C840.224173,32.7632434 840.823061,34.8909797 839.871978,36.5383036 C839.375975,37.3974057 838.556492,37.9592985 837.648301,38.1591278 C837.391464,38.9194757 837.277995,39.7045263 837.294985,40.4840547 C836.709081,39.8485986 836.382359,39.0291603 836.360026,38.1941698 C836.085004,38.8404026 835.917328,39.5110363 835.852132,40.1861828 Z" id="Twitter" transform="translate(836.000000, 30.500000) rotate(-124.000000) translate(-836.000000, -30.500000) "></path>
            </g>
        </g>
    </g>
</svg>